<svg xmlns="http://www.w3.org/2000/svg" xmlns:xlink="http://www.w3.org/1999/xlink" xmlns:lucid="lucid" width="1320" height="319.33"><g transform="translate(-80 -139.99999999999994)" lucid:page-tab-id="0_0"><path d="M0 0h1870.4v1323.2H0z" fill="#fff"/><path d="M100 160h580v279.33H100z" stroke="#000" stroke-width="2" fill="#fff"/><use xlink:href="#a" transform="matrix(1,0,0,1,105,164.99999999999994) translate(0 17.951171874999986)"/><use xlink:href="#b" transform="matrix(1,0,0,1,105,164.99999999999994) translate(148.15744357638874 17.951171874999986)"/><use xlink:href="#c" transform="matrix(1,0,0,1,105,164.99999999999994) translate(0 40.395616319444414)"/><use xlink:href="#d" transform="matrix(1,0,0,1,105,164.99999999999994) translate(0 62.84006076388884)"/><use xlink:href="#e" transform="matrix(1,0,0,1,105,164.99999999999994) translate(80.8131510416666 62.84006076388884)"/><use xlink:href="#f" transform="matrix(1,0,0,1,105,164.99999999999994) translate(0 85.28450520833327)"/><use xlink:href="#g" transform="matrix(1,0,0,1,105,164.99999999999994) translate(0 107.7289496527777)"/><use xlink:href="#h" transform="matrix(1,0,0,1,105,164.99999999999994) translate(26.93771701388887 107.7289496527777)"/><use xlink:href="#i" transform="matrix(1,0,0,1,105,164.99999999999994) translate(121.2197265624999 107.7289496527777)"/><use xlink:href="#j" transform="matrix(1,0,0,1,105,164.99999999999994) translate(188.56401909722206 107.7289496527777)"/><use xlink:href="#k" transform="matrix(1,0,0,1,105,164.99999999999994) translate(282.8460286458331 107.7289496527777)"/><use xlink:href="#l" transform="matrix(1,0,0,1,105,164.99999999999994) translate(309.78374565972194 107.7289496527777)"/><use xlink:href="#m" transform="matrix(1,0,0,1,105,164.99999999999994) translate(363.65917968749966 107.7289496527777)"/><use xlink:href="#g" transform="matrix(1,0,0,1,105,164.99999999999994) translate(0 130.17339409722211)"/><use xlink:href="#h" transform="matrix(1,0,0,1,105,164.99999999999994) translate(26.93771701388887 130.17339409722211)"/><use xlink:href="#i" transform="matrix(1,0,0,1,105,164.99999999999994) translate(121.2197265624999 130.17339409722211)"/><use xlink:href="#n" transform="matrix(1,0,0,1,105,164.99999999999994) translate(188.56401909722206 130.17339409722211)"/><use xlink:href="#k" transform="matrix(1,0,0,1,105,164.99999999999994) translate(296.3148871527775 130.17339409722211)"/><use xlink:href="#l" transform="matrix(1,0,0,1,105,164.99999999999994) translate(323.25260416666634 130.17339409722211)"/><use xlink:href="#o" transform="matrix(1,0,0,1,105,164.99999999999994) translate(377.1280381944441 130.17339409722211)"/><use xlink:href="#p" transform="matrix(1,0,0,1,105,164.99999999999994) translate(0 152.61783854166657)"/><use xlink:href="#c" transform="matrix(1,0,0,1,105,164.99999999999994) translate(0 175.06228298611097)"/><use xlink:href="#d" transform="matrix(1,0,0,1,105,164.99999999999994) translate(0 197.50672743055543)"/><use xlink:href="#q" transform="matrix(1,0,0,1,105,164.99999999999994) translate(80.8131510416666 197.50672743055543)"/><use xlink:href="#r" transform="matrix(1,0,0,1,105,164.99999999999994) translate(148.15744357638877 197.50672743055543)"/><use xlink:href="#s" transform="matrix(1,0,0,1,105,164.99999999999994) translate(175.09516059027766 197.50672743055543)"/><use xlink:href="#t" transform="matrix(1,0,0,1,105,164.99999999999994) translate(0 219.95117187499983)"/><use xlink:href="#p" transform="matrix(1,0,0,1,105,164.99999999999994) translate(0 242.3956163194443)"/><use xlink:href="#u" transform="matrix(1,0,0,1,105,164.99999999999994) translate(0 264.8400607638887)"/><path d="M800 160h580v279.33H800z" stroke="#000" stroke-width="2" fill="#fff"/><g><use xlink:href="#v" transform="matrix(1,0,0,1,805,164.99999999999994) translate(0 17.951171874999986)"/><use xlink:href="#d" transform="matrix(1,0,0,1,805,164.99999999999994) translate(0 40.395616319444414)"/><use xlink:href="#e" transform="matrix(1,0,0,1,805,164.99999999999994) translate(80.8131510416666 40.395616319444414)"/><use xlink:href="#f" transform="matrix(1,0,0,1,805,164.99999999999994) translate(0 62.84006076388884)"/><use xlink:href="#g" transform="matrix(1,0,0,1,805,164.99999999999994) translate(0 85.28450520833327)"/><use xlink:href="#h" transform="matrix(1,0,0,1,805,164.99999999999994) translate(26.93771701388887 85.28450520833327)"/><use xlink:href="#i" transform="matrix(1,0,0,1,805,164.99999999999994) translate(121.2197265624999 85.28450520833327)"/><use xlink:href="#j" transform="matrix(1,0,0,1,805,164.99999999999994) translate(188.56401909722206 85.28450520833327)"/><use xlink:href="#k" transform="matrix(1,0,0,1,805,164.99999999999994) translate(282.8460286458331 85.28450520833327)"/><use xlink:href="#l" transform="matrix(1,0,0,1,805,164.99999999999994) translate(309.78374565972194 85.28450520833327)"/><use xlink:href="#m" transform="matrix(1,0,0,1,805,164.99999999999994) translate(363.65917968749966 85.28450520833327)"/><use xlink:href="#g" transform="matrix(1,0,0,1,805,164.99999999999994) translate(0 107.7289496527777)"/><use xlink:href="#h" transform="matrix(1,0,0,1,805,164.99999999999994) translate(26.93771701388887 107.7289496527777)"/><use xlink:href="#i" transform="matrix(1,0,0,1,805,164.99999999999994) translate(121.2197265624999 107.7289496527777)"/><use xlink:href="#n" transform="matrix(1,0,0,1,805,164.99999999999994) translate(188.56401909722206 107.7289496527777)"/><use xlink:href="#k" transform="matrix(1,0,0,1,805,164.99999999999994) translate(296.3148871527775 107.7289496527777)"/><use xlink:href="#l" transform="matrix(1,0,0,1,805,164.99999999999994) translate(323.25260416666634 107.7289496527777)"/><use xlink:href="#o" transform="matrix(1,0,0,1,805,164.99999999999994) translate(377.1280381944441 107.7289496527777)"/><use xlink:href="#p" transform="matrix(1,0,0,1,805,164.99999999999994) translate(0 130.17339409722211)"/><use xlink:href="#c" transform="matrix(1,0,0,1,805,164.99999999999994) translate(0 152.61783854166657)"/><use xlink:href="#v" transform="matrix(1,0,0,1,805,164.99999999999994) translate(0 175.06228298611097)"/><use xlink:href="#d" transform="matrix(1,0,0,1,805,164.99999999999994) translate(0 197.50672743055543)"/><use xlink:href="#q" transform="matrix(1,0,0,1,805,164.99999999999994) translate(80.8131510416666 197.50672743055543)"/><use xlink:href="#r" transform="matrix(1,0,0,1,805,164.99999999999994) translate(148.15744357638877 197.50672743055543)"/><use xlink:href="#s" transform="matrix(1,0,0,1,805,164.99999999999994) translate(175.09516059027766 197.50672743055543)"/><use xlink:href="#t" transform="matrix(1,0,0,1,805,164.99999999999994) translate(0 219.95117187499983)"/><use xlink:href="#w" transform="matrix(1,0,0,1,805,164.99999999999994) translate(0 242.3956163194443)"/></g><path d="M701 300h60.5M701.03 300H700" stroke="#000" stroke-width="2" fill="none"/><path d="M776.76 300l-14.26 4.64v-9.28z" stroke="#000" stroke-width="2"/><defs><path d="M410 425v-1909h547v139H590V286h367v139H410" id="x"/><path d="M1000-272c3 95 12 159 101 161 21 0 41-3 59-7V-6c-44 10-86 16-139 16-141 2-191-84-197-217h-6C748-76 648 20 446 20c-207 0-318-120-318-322 0-266 194-348 454-354l236-4c12-191-40-305-222-305-140 0-220 47-232 172l-188-17c33-204 181-292 423-292 255 0 401 118 401 364v466zm-683-27c0 109 63 184 175 182 166-3 259-96 306-217 24-65 20-120 20-200-232 7-501-28-501 235" id="y"/><path d="M873-819c-18-114-119-146-250-146-163 0-245 50-245 151 0 151 170 148 294 185 182 54 388 94 388 320 0 240-189 325-439 329-245 4-410-69-454-268l159-31c24 133 136 168 295 165 144-2 270-31 270-171 0-164-195-160-331-202-167-52-350-87-350-299 0-218 173-315 413-313 220 2 373 77 412 260" id="z"/><path d="M617-1102c355 0 481 238 477 599H322c5 222 84 388 301 388 144 0 244-59 284-166l158 45C1002-72 854 20 623 20c-342 0-490-220-490-568 0-346 151-554 484-554zm291 461c-18-192-90-328-289-328-194 0-287 128-295 328h584" id="A"/><path d="M904-1102c199 0 220 177 220 381V0H956v-686c-3-114 0-215-60-264-70-33-125-4-158 71-26 56-39 140-39 252V0H531v-686c-3-114-1-215-61-264-78-41-136 24-157 84-24 69-39 159-39 259V0H105c-3-360 6-732-6-1082h149c6 50 3 123 8 175 36-100 83-195 216-195 135 0 166 79 196 196 42-105 93-196 236-196" id="B"/><path d="M365-904c58-129 161-200 334-200 130 0 228 46 293 138s98 233 98 420c0 189-34 331-102 425S824 20 698 20c-170 0-275-64-336-184 0 55-3 116-9 164H179c5-68 6-147 6-223v-1261h180c-2 193 4 394-4 580h4zm283 791c221 0 256-197 256-427 0-229-34-425-254-425-236 0-285 195-285 441 0 237 53 411 283 411" id="C"/><path d="M736-142h380V0H134v-142h422v-1200H267v-142h469v1342" id="D"/><path d="M168 279c222 39 310-114 368-290L66-1082h192c120 299 249 590 362 896 115-301 235-597 351-896h190L705 0c-65 164-130 320-275 396-67 36-177 35-262 18V279" id="E"/><path d="M496 0v-299h235V0H496zm0-783v-299h235v299H496" id="F"/><g id="a"><use transform="matrix(0.010959201388888881,0,0,0.010959201388888881,0,0)" xlink:href="#x"/><use transform="matrix(0.010959201388888881,0,0,0.010959201388888881,13.468858506944436,0)" xlink:href="#y"/><use transform="matrix(0.010959201388888881,0,0,0.010959201388888881,26.93771701388887,0)" xlink:href="#z"/><use transform="matrix(0.010959201388888881,0,0,0.010959201388888881,40.40657552083331,0)" xlink:href="#z"/><use transform="matrix(0.010959201388888881,0,0,0.010959201388888881,53.87543402777774,0)" xlink:href="#A"/><use transform="matrix(0.010959201388888881,0,0,0.010959201388888881,67.34429253472217,0)" xlink:href="#B"/><use transform="matrix(0.010959201388888881,0,0,0.010959201388888881,80.8131510416666,0)" xlink:href="#C"/><use transform="matrix(0.010959201388888881,0,0,0.010959201388888881,94.28200954861103,0)" xlink:href="#D"/><use transform="matrix(0.010959201388888881,0,0,0.010959201388888881,107.75086805555546,0)" xlink:href="#E"/><use transform="matrix(0.010959201388888881,0,0,0.010959201388888881,121.2197265624999,0)" xlink:href="#F"/></g><path d="M709-1193V0H519v-1193H76v-156h1076v156H709" id="G"/><path d="M615-1102c343 0 484 203 482 560-1 347-147 562-488 562-336 0-475-219-479-562-4-349 156-560 485-560zm-8 989c240 0 301-180 301-429 0-245-55-427-290-427-236 0-299 181-299 427 0 243 61 429 288 429" id="H"/><path d="M614-1226c-167 1-283 53-283 213 0 183 186 193 334 234 230 63 463 120 463 409 0 286-219 387-518 390C309 23 131-98 79-338l185-37c34 165 149 248 351 246 184-2 324-58 324-238 0-203-207-221-372-266-210-57-422-111-422-377 0-267 201-356 470-360 279-5 430 101 480 324l-188 33c-28-141-121-215-293-213" id="I"/><path d="M682 16c-209 0-323-80-324-285v-671H190v-142h170l58-282h120v282h432v142H538v652c2 114 60 155 182 155 106 0 209-16 297-34v137C921-4 806 16 682 16" id="J"/><path d="M839-1102c70 0 148 7 206 17v167c-112-18-268-36-363 15-129 69-208 203-208 395V0H294c-10-367 32-789-52-1082h171c21 75 41 161 48 250h5c67-152 152-270 373-270" id="K"/><path d="M745-142h380V0H143v-142h422v-798H246v-142h499v940zM545-1292v-192h200v192H545" id="L"/><path d="M706-1102c241 0 344 136 343 381V0H868v-695c1-168-57-273-220-268-190 6-283 138-283 336V0H185c-3-360 6-732-6-1082h170c4 54 7 126 8 185h3c63-121 164-204 346-205" id="M"/><path d="M1048-32c-2 300-135 456-433 456-222-1-358-88-400-267l184-25c22 99 100 157 222 156 184-2 248-125 248-315 0-64 3-133-2-194C807-100 706-13 524-12c-306 0-381-228-381-537 0-318 85-550 400-550 164 0 271 83 325 202h3c1-60 3-134 12-185h171c-13 339-4 702-6 1050zM585-145c210-8 284-178 284-406 0-192-52-331-177-392-33-16-69-22-104-22-223 2-259 184-259 414 0 229 31 415 256 406" id="N"/><path d="M891-1484c-201 251-362 514-362 954 0 441 161 704 362 955H701C500 176 342-90 342-532c0-440 159-704 359-952h190" id="O"/><path d="M202-1349h823v156H709v1037h316V0H202v-156h316v-1037H202v-156" id="P"/><path d="M631 20c-350 0-501-215-501-562 0-355 162-560 502-560 250 0 399 118 446 323l-192 14c-23-124-109-196-262-196-242 0-305 171-305 415 1 245 61 427 304 427 151 0 248-77 267-215l190 12C1039-107 883 20 631 20" id="Q"/><path d="M528 20c-247 0-343-132-343-381v-721h180v686c-4 177 45 284 224 277 194-8 279-136 279-336v-627h181c3 360-6 732 6 1082H885c-4-54-7-126-8-185h-3C809-64 714 20 528 20" id="R"/><path d="M865-914c-3-187-2-380-2-570h180v1261c0 76 1 155 6 223H877c-8-49-9-116-10-174h-5C801-44 708 26 530 26c-135 0-234-46-297-139s-95-232-95-419c0-377 131-566 392-566 176 0 271 63 335 184zm-286-51c-222 0-255 197-255 427 0 229 31 425 253 425 237 0 286-195 286-441 0-238-52-411-284-411" id="S"/><path d="M622-1349c296 4 497 117 497 404 0 282-193 424-485 431H353V0H162v-1349h460zm-15 684c195-3 320-88 320-277 0-184-129-255-328-254H353v531h254" id="T"/><path d="M715 0H502L69-1082h202c94 253 197 500 285 758 19 57 36 126 52 183 96-335 234-626 350-941h201" id="U"/><path d="M116-856v-148h995v148H116zm0 512v-148h995v148H116" id="V"/><path d="M528-1484c201 248 357 511 357 952 0 442-156 709-357 957H336C537 174 700-89 700-530c0-440-163-703-364-954h192" id="W"/><path d="M270 425V286h367v-1631H270v-139h547V425H270" id="X"/><g id="b"><use transform="matrix(0.010959201388888881,0,0,0.010959201388888881,0,0)" xlink:href="#G"/><use transform="matrix(0.010959201388888881,0,0,0.010959201388888881,13.468858506944436,0)" xlink:href="#H"/><use transform="matrix(0.010959201388888881,0,0,0.010959201388888881,26.93771701388887,0)" xlink:href="#I"/><use transform="matrix(0.010959201388888881,0,0,0.010959201388888881,40.40657552083331,0)" xlink:href="#J"/><use transform="matrix(0.010959201388888881,0,0,0.010959201388888881,53.87543402777774,0)" xlink:href="#K"/><use transform="matrix(0.010959201388888881,0,0,0.010959201388888881,67.34429253472217,0)" xlink:href="#L"/><use transform="matrix(0.010959201388888881,0,0,0.010959201388888881,80.8131510416666,0)" xlink:href="#M"/><use transform="matrix(0.010959201388888881,0,0,0.010959201388888881,94.28200954861103,0)" xlink:href="#N"/><use transform="matrix(0.010959201388888881,0,0,0.010959201388888881,107.75086805555546,0)" xlink:href="#O"/><use transform="matrix(0.010959201388888881,0,0,0.010959201388888881,121.2197265624999,0)" xlink:href="#P"/><use transform="matrix(0.010959201388888881,0,0,0.010959201388888881,134.68858506944431,0)" xlink:href="#M"/><use transform="matrix(0.010959201388888881,0,0,0.010959201388888881,148.15744357638874,0)" xlink:href="#Q"/><use transform="matrix(0.010959201388888881,0,0,0.010959201388888881,161.62630208333317,0)" xlink:href="#D"/><use transform="matrix(0.010959201388888881,0,0,0.010959201388888881,175.0951605902776,0)" xlink:href="#R"/><use transform="matrix(0.010959201388888881,0,0,0.010959201388888881,188.564019097222,0)" xlink:href="#S"/><use transform="matrix(0.010959201388888881,0,0,0.010959201388888881,202.03287760416646,0)" xlink:href="#A"/><use transform="matrix(0.010959201388888881,0,0,0.010959201388888881,215.5017361111109,0)" xlink:href="#T"/><use transform="matrix(0.010959201388888881,0,0,0.010959201388888881,228.97059461805532,0)" xlink:href="#K"/><use transform="matrix(0.010959201388888881,0,0,0.010959201388888881,242.43945312499974,0)" xlink:href="#L"/><use transform="matrix(0.010959201388888881,0,0,0.010959201388888881,255.90831163194417,0)" xlink:href="#U"/><use transform="matrix(0.010959201388888881,0,0,0.010959201388888881,269.37717013888863,0)" xlink:href="#y"/><use transform="matrix(0.010959201388888881,0,0,0.010959201388888881,282.8460286458331,0)" xlink:href="#J"/><use transform="matrix(0.010959201388888881,0,0,0.010959201388888881,296.31488715277754,0)" xlink:href="#A"/><use transform="matrix(0.010959201388888881,0,0,0.010959201388888881,309.783745659722,0)" xlink:href="#V"/><use transform="matrix(0.010959201388888881,0,0,0.010959201388888881,323.25260416666646,0)" xlink:href="#J"/><use transform="matrix(0.010959201388888881,0,0,0.010959201388888881,336.7214626736109,0)" xlink:href="#K"/><use transform="matrix(0.010959201388888881,0,0,0.010959201388888881,350.1903211805554,0)" xlink:href="#R"/><use transform="matrix(0.010959201388888881,0,0,0.010959201388888881,363.65917968749983,0)" xlink:href="#A"/><use transform="matrix(0.010959201388888881,0,0,0.010959201388888881,377.1280381944443,0)" xlink:href="#W"/><use transform="matrix(0.010959201388888881,0,0,0.010959201388888881,390.5968967013888,0)" xlink:href="#X"/></g><g id="d"><use transform="matrix(0.010959201388888881,0,0,0.010959201388888881,0,0)" xlink:href="#Q"/><use transform="matrix(0.010959201388888881,0,0,0.010959201388888881,13.468858506944436,0)" xlink:href="#D"/><use transform="matrix(0.010959201388888881,0,0,0.010959201388888881,26.93771701388887,0)" xlink:href="#y"/><use transform="matrix(0.010959201388888881,0,0,0.010959201388888881,40.40657552083331,0)" xlink:href="#z"/><use transform="matrix(0.010959201388888881,0,0,0.010959201388888881,53.87543402777774,0)" xlink:href="#z"/></g><path d="M650-1214c-281 0-336 244-336 533 0 295 60 546 347 546 188 0 263-142 322-282l159 65C1058-155 935 20 659 20c-401 0-546-295-546-701 0-407 135-689 536-689 264 0 391 146 466 335l-168 65c-47-129-127-244-297-244" id="Y"/><g id="e"><use transform="matrix(0.010959201388888881,0,0,0.010959201388888881,0,0)" xlink:href="#Y"/><use transform="matrix(0.010959201388888881,0,0,0.010959201388888881,13.468858506944436,0)" xlink:href="#y"/><use transform="matrix(0.010959201388888881,0,0,0.010959201388888881,26.93771701388887,0)" xlink:href="#z"/><use transform="matrix(0.010959201388888881,0,0,0.010959201388888881,40.40657552083331,0)" xlink:href="#J"/><use transform="matrix(0.010959201388888881,0,0,0.010959201388888881,53.87543402777774,0)" xlink:href="#D"/><use transform="matrix(0.010959201388888881,0,0,0.010959201388888881,67.34429253472217,0)" xlink:href="#A"/></g><path d="M677 91c1 136 41 195 171 195h213v139H796c-186-8-294-116-294-303v-351c-3-164-120-222-275-232v-137c155-10 275-69 275-231v-352c6-189 106-303 294-303h265v139H848c-126-3-171 67-171 195v346c-5 158-108 234-231 274 128 36 231 115 231 274V91" id="Z"/><use transform="matrix(0.010959201388888881,0,0,0.010959201388888881,0,0)" xlink:href="#Z" id="f"/><path d="M698-1104c312 3 392 244 392 558 0 315-82 566-392 566-169 0-277-65-331-184h-5c8 188 2 394 4 589H185V-858c0-76-1-156-6-224h175c6 52 9 120 10 178h4c58-122 150-202 330-200zm-49 991c225 0 255-203 255-433 0-225-32-419-253-419-236 0-285 192-285 441 0 237 53 411 283 411" id="aa"/><g id="h"><use transform="matrix(0.010959201388888881,0,0,0.010959201388888881,0,0)" xlink:href="#aa"/><use transform="matrix(0.010959201388888881,0,0,0.010959201388888881,13.468858506944436,0)" xlink:href="#R"/><use transform="matrix(0.010959201388888881,0,0,0.010959201388888881,26.93771701388887,0)" xlink:href="#C"/><use transform="matrix(0.010959201388888881,0,0,0.010959201388888881,40.40657552083331,0)" xlink:href="#D"/><use transform="matrix(0.010959201388888881,0,0,0.010959201388888881,53.87543402777774,0)" xlink:href="#L"/><use transform="matrix(0.010959201388888881,0,0,0.010959201388888881,67.34429253472217,0)" xlink:href="#Q"/></g><g id="i"><use transform="matrix(0.010959201388888881,0,0,0.010959201388888881,0,0)" xlink:href="#U"/><use transform="matrix(0.010959201388888881,0,0,0.010959201388888881,13.468858506944436,0)" xlink:href="#H"/><use transform="matrix(0.010959201388888881,0,0,0.010959201388888881,26.93771701388887,0)" xlink:href="#L"/><use transform="matrix(0.010959201388888881,0,0,0.010959201388888881,40.40657552083331,0)" xlink:href="#S"/></g><path d="M102-681c0-398 126-689 513-689 165 0 291 58 379 174s132 287 132 515c-1 318-88 554-298 657-123 61-317 58-438-3-206-104-288-341-288-654zm749 406c94-160 97-656-5-807-57-85-130-132-231-132-104 0-178 47-234 132-101 153-99 655 1 809 57 89 130 138 232 138 109 0 184-49 237-140" id="ab"/><g id="j"><use transform="matrix(0.010959201388888881,0,0,0.010959201388888881,0,0)" xlink:href="#ab"/><use transform="matrix(0.010959201388888881,0,0,0.010959201388888881,13.468858506944436,0)" xlink:href="#aa"/><use transform="matrix(0.010959201388888881,0,0,0.010959201388888881,26.93771701388887,0)" xlink:href="#A"/><use transform="matrix(0.010959201388888881,0,0,0.010959201388888881,40.40657552083331,0)" xlink:href="#M"/><use transform="matrix(0.010959201388888881,0,0,0.010959201388888881,53.87543402777774,0)" xlink:href="#O"/><use transform="matrix(0.010959201388888881,0,0,0.010959201388888881,67.34429253472217,0)" xlink:href="#W"/></g><use transform="matrix(0.010959201388888881,0,0,0.010959201388888881,0,0)" xlink:href="#Z" id="k"/><path d="M496 0v-299h235V0H496" id="ac"/><g id="l"><use transform="matrix(0.010959201388888881,0,0,0.010959201388888881,0,0)" xlink:href="#ac"/><use transform="matrix(0.010959201388888881,0,0,0.010959201388888881,13.468858506944436,0)" xlink:href="#ac"/><use transform="matrix(0.010959201388888881,0,0,0.010959201388888881,26.93771701388887,0)" xlink:href="#ac"/></g><path d="M726 122c-7 187-108 303-294 303H167V286h213c129-2 172-59 172-195v-347c5-160 106-236 230-276-125-36-230-116-230-272v-346c2-128-45-195-172-195H167v-139h265c187 7 294 114 294 303v352c4 162 120 221 275 231v137c-155 10-275 68-275 232v351" id="ad"/><use transform="matrix(0.010959201388888881,0,0,0.010959201388888881,0,0)" xlink:href="#ad" id="m"/><g id="n"><use transform="matrix(0.010959201388888881,0,0,0.010959201388888881,0,0)" xlink:href="#Y"/><use transform="matrix(0.010959201388888881,0,0,0.010959201388888881,13.468858506944436,0)" xlink:href="#D"/><use transform="matrix(0.010959201388888881,0,0,0.010959201388888881,26.93771701388887,0)" xlink:href="#H"/><use transform="matrix(0.010959201388888881,0,0,0.010959201388888881,40.40657552083331,0)" xlink:href="#z"/><use transform="matrix(0.010959201388888881,0,0,0.010959201388888881,53.87543402777774,0)" xlink:href="#A"/><use transform="matrix(0.010959201388888881,0,0,0.010959201388888881,67.34429253472217,0)" xlink:href="#O"/><use transform="matrix(0.010959201388888881,0,0,0.010959201388888881,80.8131510416666,0)" xlink:href="#W"/></g><use transform="matrix(0.010959201388888881,0,0,0.010959201388888881,0,0)" xlink:href="#ad" id="o"/><use transform="matrix(0.010959201388888881,0,0,0.010959201388888881,0,0)" xlink:href="#ad" id="p"/><path d="M1003 0L516-638 353-469V0H162v-1349h191v673l572-673h225L646-777 1227 0h-224" id="ae"/><g id="q"><use transform="matrix(0.010959201388888881,0,0,0.010959201388888881,0,0)" xlink:href="#ae"/><use transform="matrix(0.010959201388888881,0,0,0.010959201388888881,13.468858506944436,0)" xlink:href="#A"/><use transform="matrix(0.010959201388888881,0,0,0.010959201388888881,26.93771701388887,0)" xlink:href="#A"/><use transform="matrix(0.010959201388888881,0,0,0.010959201388888881,40.40657552083331,0)" xlink:href="#aa"/></g><use transform="matrix(0.010959201388888881,0,0,0.010959201388888881,0,0)" xlink:href="#F" id="r"/><g id="s"><use transform="matrix(0.010959201388888881,0,0,0.010959201388888881,0,0)" xlink:href="#Y"/><use transform="matrix(0.010959201388888881,0,0,0.010959201388888881,13.468858506944436,0)" xlink:href="#y"/><use transform="matrix(0.010959201388888881,0,0,0.010959201388888881,26.93771701388887,0)" xlink:href="#z"/><use transform="matrix(0.010959201388888881,0,0,0.010959201388888881,40.40657552083331,0)" xlink:href="#J"/><use transform="matrix(0.010959201388888881,0,0,0.010959201388888881,53.87543402777774,0)" xlink:href="#D"/><use transform="matrix(0.010959201388888881,0,0,0.010959201388888881,67.34429253472217,0)" xlink:href="#A"/></g><use transform="matrix(0.010959201388888881,0,0,0.010959201388888881,0,0)" xlink:href="#Z" id="t"/><g id="v"><use transform="matrix(0.010959201388888881,0,0,0.010959201388888881,0,0)" xlink:href="#x"/><use transform="matrix(0.010959201388888881,0,0,0.010959201388888881,13.468858506944436,0)" xlink:href="#G"/><use transform="matrix(0.010959201388888881,0,0,0.010959201388888881,26.93771701388887,0)" xlink:href="#H"/><use transform="matrix(0.010959201388888881,0,0,0.010959201388888881,40.40657552083331,0)" xlink:href="#I"/><use transform="matrix(0.010959201388888881,0,0,0.010959201388888881,53.87543402777774,0)" xlink:href="#J"/><use transform="matrix(0.010959201388888881,0,0,0.010959201388888881,67.34429253472217,0)" xlink:href="#K"/><use transform="matrix(0.010959201388888881,0,0,0.010959201388888881,80.8131510416666,0)" xlink:href="#L"/><use transform="matrix(0.010959201388888881,0,0,0.010959201388888881,94.28200954861103,0)" xlink:href="#M"/><use transform="matrix(0.010959201388888881,0,0,0.010959201388888881,107.75086805555546,0)" xlink:href="#N"/><use transform="matrix(0.010959201388888881,0,0,0.010959201388888881,121.2197265624999,0)" xlink:href="#O"/><use transform="matrix(0.010959201388888881,0,0,0.010959201388888881,134.68858506944431,0)" xlink:href="#P"/><use transform="matrix(0.010959201388888881,0,0,0.010959201388888881,148.15744357638874,0)" xlink:href="#M"/><use transform="matrix(0.010959201388888881,0,0,0.010959201388888881,161.62630208333317,0)" xlink:href="#Q"/><use transform="matrix(0.010959201388888881,0,0,0.010959201388888881,175.0951605902776,0)" xlink:href="#D"/><use transform="matrix(0.010959201388888881,0,0,0.010959201388888881,188.564019097222,0)" xlink:href="#R"/><use transform="matrix(0.010959201388888881,0,0,0.010959201388888881,202.03287760416646,0)" xlink:href="#S"/><use transform="matrix(0.010959201388888881,0,0,0.010959201388888881,215.5017361111109,0)" xlink:href="#A"/><use transform="matrix(0.010959201388888881,0,0,0.010959201388888881,228.97059461805532,0)" xlink:href="#T"/><use transform="matrix(0.010959201388888881,0,0,0.010959201388888881,242.43945312499974,0)" xlink:href="#K"/><use transform="matrix(0.010959201388888881,0,0,0.010959201388888881,255.90831163194417,0)" xlink:href="#L"/><use transform="matrix(0.010959201388888881,0,0,0.010959201388888881,269.37717013888863,0)" xlink:href="#U"/><use transform="matrix(0.010959201388888881,0,0,0.010959201388888881,282.8460286458331,0)" xlink:href="#y"/><use transform="matrix(0.010959201388888881,0,0,0.010959201388888881,296.31488715277754,0)" xlink:href="#J"/><use transform="matrix(0.010959201388888881,0,0,0.010959201388888881,309.783745659722,0)" xlink:href="#A"/><use transform="matrix(0.010959201388888881,0,0,0.010959201388888881,323.25260416666646,0)" xlink:href="#V"/><use transform="matrix(0.010959201388888881,0,0,0.010959201388888881,336.7214626736109,0)" xlink:href="#J"/><use transform="matrix(0.010959201388888881,0,0,0.010959201388888881,350.1903211805554,0)" xlink:href="#K"/><use transform="matrix(0.010959201388888881,0,0,0.010959201388888881,363.65917968749983,0)" xlink:href="#R"/><use transform="matrix(0.010959201388888881,0,0,0.010959201388888881,377.1280381944443,0)" xlink:href="#A"/><use transform="matrix(0.010959201388888881,0,0,0.010959201388888881,390.5968967013888,0)" xlink:href="#W"/><use transform="matrix(0.010959201388888881,0,0,0.010959201388888881,404.0657552083332,0)" xlink:href="#X"/></g><use transform="matrix(0.010959201388888881,0,0,0.010959201388888881,0,0)" xlink:href="#ad" id="w"/></defs></g></svg>