<svg xmlns="http://www.w3.org/2000/svg" xmlns:xlink="http://www.w3.org/1999/xlink" xmlns:lucid="lucid" width="1100" height="228.2"><g transform="translate(-80 -1020)" lucid:page-tab-id="0_0"><path d="M0 0h1870.4v1323.2H0z" fill="#fff"/><path d="M100 1040h200v80H100z" stroke="#000" stroke-width="2" fill="#fff"/><use xlink:href="#a" transform="matrix(1,0,0,1,105,1045) translate(21.625 20.9625)"/><use xlink:href="#b" transform="matrix(1,0,0,1,105,1045) translate(103.47500000000001 20.9625)"/><use xlink:href="#c" transform="matrix(1,0,0,1,105,1045) translate(13.099999999999994 42.5625)"/><use xlink:href="#d" transform="matrix(1,0,0,1,105,1045) translate(76 42.5625)"/><use xlink:href="#e" transform="matrix(1,0,0,1,105,1045) translate(101 42.5625)"/><use xlink:href="#f" transform="matrix(1,0,0,1,105,1045) translate(37.82962962962962 58.82916666666667)"/><use xlink:href="#g" transform="matrix(1,0,0,1,105,1045) translate(57.91481481481481 58.82916666666667)"/><use xlink:href="#h" transform="matrix(1,0,0,1,105,1045) translate(106.96296296296296 58.82916666666667)"/><path d="M100 1131.8h200v96.4H100z" stroke="#000" stroke-width="2" fill="#fff"/><use xlink:href="#i" transform="matrix(1,0,0,1,105,1136.8) translate(8.649999999999991 30.7125)"/><use xlink:href="#b" transform="matrix(1,0,0,1,105,1136.8) translate(116.45 30.7125)"/><use xlink:href="#c" transform="matrix(1,0,0,1,105,1136.8) translate(13.099999999999994 52.3125)"/><use xlink:href="#d" transform="matrix(1,0,0,1,105,1136.8) translate(76 52.3125)"/><use xlink:href="#e" transform="matrix(1,0,0,1,105,1136.8) translate(101 52.3125)"/><use xlink:href="#f" transform="matrix(1,0,0,1,105,1136.8) translate(14.517592592592592 68.57916666666667)"/><use xlink:href="#g" transform="matrix(1,0,0,1,105,1136.8) translate(34.60277777777778 68.57916666666667)"/><use xlink:href="#j" transform="matrix(1,0,0,1,105,1136.8) translate(83.65092592592593 68.57916666666667)"/><use xlink:href="#k" transform="matrix(1,0,0,1,105,1136.8) translate(124.54537037037038 68.57916666666667)"/><path d="M520 1040h200v80H520z" stroke="#000" stroke-width="2" fill="#fff"/><use xlink:href="#a" transform="matrix(1,0,0,1,525,1045) translate(21.625 27.525)"/><use xlink:href="#b" transform="matrix(1,0,0,1,525,1045) translate(103.47500000000001 27.525)"/><use xlink:href="#c" transform="matrix(1,0,0,1,525,1045) translate(26.549999999999997 49.125)"/><use xlink:href="#d" transform="matrix(1,0,0,1,525,1045) translate(89.45 49.125)"/><use xlink:href="#l" transform="matrix(1,0,0,1,525,1045) translate(114.45 49.125)"/><use xlink:href="#m" transform="matrix(1,0,0,1,525,1045) translate(129.45 49.125)"/><path d="M317.13 1081H302v-2h15.13zm183.37 0h-21.63v-2h21.63z"/><path d="M302.03 1081H301v-2h1.03zM515.76 1080l-14.26 4.64v-9.28z"/><path d="M519 1080l-18.5 6v-12zm-16.5 3.26l10.03-3.26-10.03-3.26z"/><g><use xlink:href="#n" transform="matrix(1,0,0,1,317.125,1069.2) translate(0 14.4)"/><use xlink:href="#o" transform="matrix(1,0,0,1,317.125,1069.2) translate(75.85000000000001 14.4)"/><use xlink:href="#p" transform="matrix(1,0,0,1,317.125,1069.2) translate(95.85000000000001 14.4)"/><use xlink:href="#q" transform="matrix(1,0,0,1,317.125,1069.2) translate(118.75 14.4)"/></g><path d="M520 1140h200v80H520z" stroke="#000" stroke-width="2" fill="#fff"/><g><use xlink:href="#i" transform="matrix(1,0,0,1,525,1145) translate(8.649999999999991 27.525)"/><use xlink:href="#b" transform="matrix(1,0,0,1,525,1145) translate(116.45 27.525)"/><use xlink:href="#c" transform="matrix(1,0,0,1,525,1145) translate(26.549999999999997 49.125)"/><use xlink:href="#d" transform="matrix(1,0,0,1,525,1145) translate(89.45 49.125)"/><use xlink:href="#l" transform="matrix(1,0,0,1,525,1145) translate(114.45 49.125)"/><use xlink:href="#m" transform="matrix(1,0,0,1,525,1145) translate(129.45 49.125)"/></g><path d="M317.13 1181H302v-2h15.13zm183.37 0h-21.63v-2h21.63z"/><path d="M302.03 1181H301v-2h1.03zM515.76 1180l-14.26 4.64v-9.28z"/><path d="M519 1180l-18.5 6v-12zm-16.5 3.26l10.03-3.26-10.03-3.26z"/><g><use xlink:href="#n" transform="matrix(1,0,0,1,317.125,1169.2) translate(0 14.4)"/><use xlink:href="#o" transform="matrix(1,0,0,1,317.125,1169.2) translate(75.85000000000001 14.4)"/><use xlink:href="#p" transform="matrix(1,0,0,1,317.125,1169.2) translate(95.85000000000001 14.4)"/><use xlink:href="#q" transform="matrix(1,0,0,1,317.125,1169.2) translate(118.75 14.4)"/></g><path d="M733.05 1181H722v-2h11.05zm207.45 0h-19.75v-2h19.75z"/><path d="M722.03 1181H721v-2h1.03zM955.76 1180l-14.26 4.64v-9.28z"/><path d="M959 1180l-18.5 6v-12zm-16.5 3.26l10.03-3.26-10.03-3.26z"/><g><use xlink:href="#n" transform="matrix(1,0,0,1,733.0490825688073,1169.2) translate(0 14.4)"/><use xlink:href="#o" transform="matrix(1,0,0,1,733.0490825688073,1169.2) translate(75.85000000000001 14.4)"/><use xlink:href="#p" transform="matrix(1,0,0,1,733.0490825688073,1169.2) translate(95.85000000000001 14.4)"/><use xlink:href="#r" transform="matrix(1,0,0,1,733.0490825688073,1169.2) translate(118.75 14.4)"/></g><path d="M960 1140h200v80H960z" stroke="#000" stroke-width="2" fill="#fff"/><g><use xlink:href="#i" transform="matrix(1,0,0,1,965,1145) translate(8.649999999999991 27.525)"/><use xlink:href="#b" transform="matrix(1,0,0,1,965,1145) translate(116.45 27.525)"/><use xlink:href="#c" transform="matrix(1,0,0,1,965,1145) translate(13.574999999999989 49.125)"/><use xlink:href="#d" transform="matrix(1,0,0,1,965,1145) translate(76.475 49.125)"/><use xlink:href="#l" transform="matrix(1,0,0,1,965,1145) translate(101.475 49.125)"/><use xlink:href="#s" transform="matrix(1,0,0,1,965,1145) translate(116.475 49.125)"/></g><defs><path d="M59-47c-2 24 18 29 38 22v24C64 9 27 4 27-40v-127H5v-23h24l9-43h21v43h35v23H59v120" id="t"/><path d="M179-190L93 31C79 59 56 82 12 73V49c39 6 53-20 64-50L1-190h34L92-34l54-156h33" id="u"/><path d="M115-194c55 1 70 41 70 98S169 2 115 4C84 4 66-9 55-30l1 105H24l-1-265h31l2 30c10-21 28-34 59-34zm-8 174c40 0 45-34 45-75s-6-73-45-74c-42 0-51 32-51 76 0 43 10 73 51 73" id="v"/><path d="M100-194c63 0 86 42 84 106H49c0 40 14 67 53 68 26 1 43-12 49-29l28 8c-11 28-37 45-77 45C44 4 14-33 15-96c1-61 26-98 85-98zm52 81c6-60-76-77-97-28-3 7-6 17-6 28h103" id="w"/><path d="M16-82v-28h88v28H16" id="x"/><path d="M24 0v-261h32V0H24" id="y"/><path d="M108 0H70L1-190h34L89-25l56-165h34" id="z"/><g id="a"><use transform="matrix(0.05,0,0,0.05,0,0)" xlink:href="#t"/><use transform="matrix(0.05,0,0,0.05,5,0)" xlink:href="#u"/><use transform="matrix(0.05,0,0,0.05,14,0)" xlink:href="#v"/><use transform="matrix(0.05,0,0,0.05,24,0)" xlink:href="#w"/><use transform="matrix(0.05,0,0,0.05,34,0)" xlink:href="#x"/><use transform="matrix(0.05,0,0,0.05,39.95,0)" xlink:href="#y"/><use transform="matrix(0.05,0,0,0.05,43.900000000000006,0)" xlink:href="#w"/><use transform="matrix(0.05,0,0,0.05,53.900000000000006,0)" xlink:href="#z"/><use transform="matrix(0.05,0,0,0.05,62.900000000000006,0)" xlink:href="#w"/><use transform="matrix(0.05,0,0,0.05,72.9,0)" xlink:href="#y"/></g><path d="M141-36C126-15 110 5 73 4 37 3 15-17 15-53c-1-64 63-63 125-63 3-35-9-54-41-54-24 1-41 7-42 31l-33-3c5-37 33-52 76-52 45 0 72 20 72 64v82c-1 20 7 32 28 27v20c-31 9-61-2-59-35zM48-53c0 20 12 33 32 33 41-3 63-29 60-74-43 2-92-5-92 41" id="A"/><path d="M114-163C36-179 61-72 57 0H25l-1-190h30c1 12-1 29 2 39 6-27 23-49 58-41v29" id="B"/><path d="M24-231v-30h32v30H24zM24 0v-190h32V0H24" id="C"/><path d="M115-194c53 0 69 39 70 98 0 66-23 100-70 100C84 3 66-7 56-30L54 0H23l1-261h32v101c10-23 28-34 59-34zm-8 174c40 0 45-34 45-75 0-40-5-75-45-74-42 0-51 32-51 76 0 43 10 73 51 73" id="D"/><path d="M84 4C-5 8 30-112 23-190h32v120c0 31 7 50 39 49 72-2 45-101 50-169h31l1 190h-30c-1-10 1-25-2-33-11 22-28 36-60 37" id="E"/><g id="b"><use transform="matrix(0.05,0,0,0.05,0,0)" xlink:href="#A"/><use transform="matrix(0.05,0,0,0.05,10,0)" xlink:href="#t"/><use transform="matrix(0.05,0,0,0.05,15,0)" xlink:href="#t"/><use transform="matrix(0.05,0,0,0.05,20,0)" xlink:href="#B"/><use transform="matrix(0.05,0,0,0.05,25.950000000000003,0)" xlink:href="#C"/><use transform="matrix(0.05,0,0,0.05,29.899999999999995,0)" xlink:href="#D"/><use transform="matrix(0.05,0,0,0.05,39.9,0)" xlink:href="#E"/><use transform="matrix(0.05,0,0,0.05,49.9,0)" xlink:href="#t"/><use transform="matrix(0.05,0,0,0.05,54.900000000000006,0)" xlink:href="#w"/></g><path d="M85-194c31 0 48 13 60 33l-1-100h32l1 261h-30c-2-10 0-23-3-31C134-8 116 4 85 4 32 4 16-35 15-94c0-66 23-100 70-100zm9 24c-40 0-46 34-46 75 0 40 6 74 45 74 42 0 51-32 51-76 0-42-9-74-50-73" id="F"/><g id="c"><use transform="matrix(0.05,0,0,0.05,0,0)" xlink:href="#A"/><use transform="matrix(0.05,0,0,0.05,10,0)" xlink:href="#v"/><use transform="matrix(0.05,0,0,0.05,20,0)" xlink:href="#v"/><use transform="matrix(0.05,0,0,0.05,30,0)" xlink:href="#y"/><use transform="matrix(0.05,0,0,0.05,33.95,0)" xlink:href="#C"/><use transform="matrix(0.05,0,0,0.05,37.900000000000006,0)" xlink:href="#w"/><use transform="matrix(0.05,0,0,0.05,47.900000000000006,0)" xlink:href="#F"/></g><path d="M100-194c62-1 85 37 85 99 1 63-27 99-86 99S16-35 15-95c0-66 28-99 85-99zM99-20c44 1 53-31 53-75 0-43-8-75-51-75s-53 32-53 75 10 74 51 75" id="G"/><path d="M117-194c89-4 53 116 60 194h-32v-121c0-31-8-49-39-48C34-167 62-67 57 0H25l-1-190h30c1 10-1 24 2 32 11-22 29-35 61-36" id="H"/><g id="d"><use transform="matrix(0.05,0,0,0.05,0,0)" xlink:href="#G"/><use transform="matrix(0.05,0,0,0.05,10,0)" xlink:href="#H"/></g><path d="M135-143c-3-34-86-38-87 0 15 53 115 12 119 90S17 21 10-45l28-5c4 36 97 45 98 0-10-56-113-15-118-90-4-57 82-63 122-42 12 7 21 19 24 35" id="I"/><path d="M210-169c-67 3-38 105-44 169h-31v-121c0-29-5-50-35-48C34-165 62-65 56 0H25l-1-190h30c1 10-1 24 2 32 10-44 99-50 107 0 11-21 27-35 58-36 85-2 47 119 55 194h-31v-121c0-29-5-49-35-48" id="J"/><g id="e"><use transform="matrix(0.05,0,0,0.05,0,0)" xlink:href="#A"/><use transform="matrix(0.05,0,0,0.05,10,0)" xlink:href="#I"/><use transform="matrix(0.05,0,0,0.05,19,0)" xlink:href="#I"/><use transform="matrix(0.05,0,0,0.05,28,0)" xlink:href="#w"/><use transform="matrix(0.05,0,0,0.05,38,0)" xlink:href="#J"/><use transform="matrix(0.05,0,0,0.05,52.95,0)" xlink:href="#D"/><use transform="matrix(0.05,0,0,0.05,62.95,0)" xlink:href="#y"/><use transform="matrix(0.05,0,0,0.05,66.9,0)" xlink:href="#u"/></g><path d="M87 75C49 33 22-17 22-94c0-76 28-126 65-167h31c-38 41-64 92-64 168S80 34 118 75H87" id="K"/><path d="M101-234c-31-9-42 10-38 44h38v23H63V0H32v-167H5v-23h27c-7-52 17-82 69-68v24" id="L"/><g id="f"><use transform="matrix(0.031481481481481485,0,0,0.031481481481481485,0,0)" xlink:href="#K"/><use transform="matrix(0.031481481481481485,0,0,0.031481481481481485,3.746296296296297,0)" xlink:href="#L"/><use transform="matrix(0.031481481481481485,0,0,0.031481481481481485,6.894444444444446,0)" xlink:href="#G"/><use transform="matrix(0.031481481481481485,0,0,0.031481481481481485,13.190740740740743,0)" xlink:href="#B"/></g><path d="M141 0L90-78 38 0H4l68-98-65-92h35l48 74 47-74h35l-64 92 68 98h-35" id="M"/><path d="M68-38c1 34 0 65-14 84H32c9-13 17-26 17-46H33v-38h35" id="N"/><g id="g"><use transform="matrix(0.031481481481481485,0,0,0.031481481481481485,0,0)" xlink:href="#w"/><use transform="matrix(0.031481481481481485,0,0,0.031481481481481485,6.296296296296297,0)" xlink:href="#M"/><use transform="matrix(0.031481481481481485,0,0,0.031481481481481485,11.962962962962964,0)" xlink:href="#A"/><use transform="matrix(0.031481481481481485,0,0,0.031481481481481485,18.25925925925926,0)" xlink:href="#J"/><use transform="matrix(0.031481481481481485,0,0,0.031481481481481485,27.672222222222224,0)" xlink:href="#v"/><use transform="matrix(0.031481481481481485,0,0,0.031481481481481485,33.96851851851852,0)" xlink:href="#y"/><use transform="matrix(0.031481481481481485,0,0,0.031481481481481485,36.45555555555556,0)" xlink:href="#w"/><use transform="matrix(0.031481481481481485,0,0,0.031481481481481485,42.75185185185186,0)" xlink:href="#N"/></g><path d="M127-220V0H93v-220H8v-28h204v28h-85" id="O"/><path d="M185-189c-5-48-123-54-124 2 14 75 158 14 163 119 3 78-121 87-175 55-17-10-28-26-33-46l33-7c5 56 141 63 141-1 0-78-155-14-162-118-5-82 145-84 179-34 5 7 8 16 11 25" id="P"/><path d="M177-190C167-65 218 103 67 71c-23-6-38-20-44-43l32-5c15 47 100 32 89-28v-30C133-14 115 1 83 1 29 1 15-40 15-95c0-56 16-97 71-98 29-1 48 16 59 35 1-10 0-23 2-32h30zM94-22c36 0 50-32 50-73 0-42-14-75-50-75-39 0-46 34-46 75s6 73 46 73" id="Q"/><path d="M33-261c38 41 65 92 65 168S71 34 33 75H2C39 34 66-17 66-93S39-220 2-261h31" id="R"/><g id="h"><use transform="matrix(0.031481481481481485,0,0,0.031481481481481485,0,0)" xlink:href="#O"/><use transform="matrix(0.031481481481481485,0,0,0.031481481481481485,5.635185185185186,0)" xlink:href="#G"/><use transform="matrix(0.031481481481481485,0,0,0.031481481481481485,11.931481481481484,0)" xlink:href="#P"/><use transform="matrix(0.031481481481481485,0,0,0.031481481481481485,19.48703703703704,0)" xlink:href="#t"/><use transform="matrix(0.031481481481481485,0,0,0.031481481481481485,22.63518518518519,0)" xlink:href="#B"/><use transform="matrix(0.031481481481481485,0,0,0.031481481481481485,26.381481481481487,0)" xlink:href="#C"/><use transform="matrix(0.031481481481481485,0,0,0.031481481481481485,28.868518518518524,0)" xlink:href="#H"/><use transform="matrix(0.031481481481481485,0,0,0.031481481481481485,35.16481481481482,0)" xlink:href="#Q"/><use transform="matrix(0.031481481481481485,0,0,0.031481481481481485,41.461111111111116,0)" xlink:href="#R"/></g><path d="M106-169C34-169 62-67 57 0H25v-261h32l-1 103c12-21 28-36 61-36 89 0 53 116 60 194h-32v-121c2-32-8-49-39-48" id="S"/><g id="i"><use transform="matrix(0.05,0,0,0.05,0,0)" xlink:href="#J"/><use transform="matrix(0.05,0,0,0.05,14.950000000000001,0)" xlink:href="#w"/><use transform="matrix(0.05,0,0,0.05,24.950000000000003,0)" xlink:href="#t"/><use transform="matrix(0.05,0,0,0.05,29.950000000000003,0)" xlink:href="#S"/><use transform="matrix(0.05,0,0,0.05,39.95,0)" xlink:href="#G"/><use transform="matrix(0.05,0,0,0.05,49.95,0)" xlink:href="#F"/><use transform="matrix(0.05,0,0,0.05,59.95,0)" xlink:href="#x"/><use transform="matrix(0.05,0,0,0.05,65.9,0)" xlink:href="#y"/><use transform="matrix(0.05,0,0,0.05,69.85000000000001,0)" xlink:href="#w"/><use transform="matrix(0.05,0,0,0.05,79.85000000000001,0)" xlink:href="#z"/><use transform="matrix(0.05,0,0,0.05,88.85000000000001,0)" xlink:href="#w"/><use transform="matrix(0.05,0,0,0.05,98.85000000000001,0)" xlink:href="#y"/></g><g id="j"><use transform="matrix(0.031481481481481485,0,0,0.031481481481481485,0,0)" xlink:href="#J"/><use transform="matrix(0.031481481481481485,0,0,0.031481481481481485,9.412962962962965,0)" xlink:href="#w"/><use transform="matrix(0.031481481481481485,0,0,0.031481481481481485,15.709259259259262,0)" xlink:href="#t"/><use transform="matrix(0.031481481481481485,0,0,0.031481481481481485,18.85740740740741,0)" xlink:href="#S"/><use transform="matrix(0.031481481481481485,0,0,0.031481481481481485,25.15370370370371,0)" xlink:href="#G"/><use transform="matrix(0.031481481481481485,0,0,0.031481481481481485,31.450000000000006,0)" xlink:href="#F"/></g><g id="k"><use transform="matrix(0.031481481481481485,0,0,0.031481481481481485,0,0)" xlink:href="#D"/><use transform="matrix(0.031481481481481485,0,0,0.031481481481481485,6.296296296296297,0)" xlink:href="#G"/><use transform="matrix(0.031481481481481485,0,0,0.031481481481481485,12.592592592592593,0)" xlink:href="#E"/><use transform="matrix(0.031481481481481485,0,0,0.031481481481481485,18.88888888888889,0)" xlink:href="#H"/><use transform="matrix(0.031481481481481485,0,0,0.031481481481481485,25.185185185185187,0)" xlink:href="#F"/><use transform="matrix(0.031481481481481485,0,0,0.031481481481481485,31.481481481481485,0)" xlink:href="#A"/><use transform="matrix(0.031481481481481485,0,0,0.031481481481481485,37.77777777777778,0)" xlink:href="#B"/><use transform="matrix(0.031481481481481485,0,0,0.031481481481481485,41.52407407407408,0)" xlink:href="#u"/><use transform="matrix(0.031481481481481485,0,0,0.031481481481481485,47.19074074074074,0)" xlink:href="#R"/></g><use transform="matrix(0.05,0,0,0.05,0,0)" xlink:href="#A" id="l"/><g id="m"><use transform="matrix(0.05,0,0,0.05,0,0)" xlink:href="#t"/><use transform="matrix(0.05,0,0,0.05,5,0)" xlink:href="#u"/><use transform="matrix(0.05,0,0,0.05,14,0)" xlink:href="#v"/><use transform="matrix(0.05,0,0,0.05,24,0)" xlink:href="#w"/></g><path d="M96-169c-40 0-48 33-48 73s9 75 48 75c24 0 41-14 43-38l32 2c-6 37-31 61-74 61-59 0-76-41-82-99-10-93 101-131 147-64 4 7 5 14 7 22l-32 3c-4-21-16-35-41-35" id="T"/><g id="n"><use transform="matrix(0.05,0,0,0.05,0,0)" xlink:href="#J"/><use transform="matrix(0.05,0,0,0.05,14.950000000000001,0)" xlink:href="#E"/><use transform="matrix(0.05,0,0,0.05,24.950000000000003,0)" xlink:href="#y"/><use transform="matrix(0.05,0,0,0.05,28.900000000000002,0)" xlink:href="#t"/><use transform="matrix(0.05,0,0,0.05,33.900000000000006,0)" xlink:href="#C"/><use transform="matrix(0.05,0,0,0.05,37.85000000000001,0)" xlink:href="#T"/><use transform="matrix(0.05,0,0,0.05,46.85000000000001,0)" xlink:href="#A"/><use transform="matrix(0.05,0,0,0.05,56.85,0)" xlink:href="#I"/><use transform="matrix(0.05,0,0,0.05,65.85000000000001,0)" xlink:href="#t"/></g><g id="o"><use transform="matrix(0.05,0,0,0.05,0,0)" xlink:href="#t"/><use transform="matrix(0.05,0,0,0.05,5,0)" xlink:href="#G"/></g><g id="p"><use transform="matrix(0.05,0,0,0.05,0,0)" xlink:href="#A"/><use transform="matrix(0.05,0,0,0.05,10,0)" xlink:href="#y"/><use transform="matrix(0.05,0,0,0.05,13.949999999999998,0)" xlink:href="#y"/></g><g id="q"><use transform="matrix(0.05,0,0,0.05,0,0)" xlink:href="#t"/><use transform="matrix(0.05,0,0,0.05,5,0)" xlink:href="#u"/><use transform="matrix(0.05,0,0,0.05,14,0)" xlink:href="#v"/><use transform="matrix(0.05,0,0,0.05,24,0)" xlink:href="#w"/><use transform="matrix(0.05,0,0,0.05,34,0)" xlink:href="#I"/></g><g id="r"><use transform="matrix(0.05,0,0,0.05,0,0)" xlink:href="#J"/><use transform="matrix(0.05,0,0,0.05,14.950000000000001,0)" xlink:href="#w"/><use transform="matrix(0.05,0,0,0.05,24.950000000000003,0)" xlink:href="#t"/><use transform="matrix(0.05,0,0,0.05,29.950000000000003,0)" xlink:href="#S"/><use transform="matrix(0.05,0,0,0.05,39.95,0)" xlink:href="#G"/><use transform="matrix(0.05,0,0,0.05,49.95,0)" xlink:href="#F"/><use transform="matrix(0.05,0,0,0.05,59.95,0)" xlink:href="#I"/></g><g id="s"><use transform="matrix(0.05,0,0,0.05,0,0)" xlink:href="#J"/><use transform="matrix(0.05,0,0,0.05,14.950000000000001,0)" xlink:href="#w"/><use transform="matrix(0.05,0,0,0.05,24.950000000000003,0)" xlink:href="#t"/><use transform="matrix(0.05,0,0,0.05,29.950000000000003,0)" xlink:href="#S"/><use transform="matrix(0.05,0,0,0.05,39.95,0)" xlink:href="#G"/><use transform="matrix(0.05,0,0,0.05,49.95,0)" xlink:href="#F"/></g></defs></g></svg>