<svg xmlns="http://www.w3.org/2000/svg" xmlns:xlink="http://www.w3.org/1999/xlink" xmlns:lucid="lucid" width="1320" height="440"><g transform="translate(-80 -80)" lucid:page-tab-id="0_0"><path d="M0 0h1870.4v1323.2H0z" fill="#fff"/><path d="M100 100h580v400H100z" stroke="#000" stroke-width="2" fill="#fff"/><use xlink:href="#a" transform="matrix(1,0,0,1,105,105) translate(0 25.060546874999993)"/><use xlink:href="#b" transform="matrix(1,0,0,1,105,105) translate(0 56.393880208333314)"/><use xlink:href="#c" transform="matrix(1,0,0,1,105,105) translate(112.81835937499997 56.393880208333314)"/><use xlink:href="#d" transform="matrix(1,0,0,1,105,105) translate(0 87.72721354166664)"/><use xlink:href="#e" transform="matrix(1,0,0,1,105,105) translate(0 119.06054687499997)"/><use xlink:href="#f" transform="matrix(1,0,0,1,105,105) translate(37.60611979166666 119.06054687499997)"/><use xlink:href="#g" transform="matrix(1,0,0,1,105,105) translate(169.22753906249997 119.06054687499997)"/><use xlink:href="#h" transform="matrix(1,0,0,1,105,105) translate(263.24283854166663 119.06054687499997)"/><use xlink:href="#i" transform="matrix(1,0,0,1,105,105) translate(394.86425781249994 119.06054687499997)"/><use xlink:href="#j" transform="matrix(1,0,0,1,105,105) translate(432.47037760416663 119.06054687499997)"/><use xlink:href="#k" transform="matrix(1,0,0,1,105,105) translate(507.68261718749994 119.06054687499997)"/><use xlink:href="#e" transform="matrix(1,0,0,1,105,105) translate(0 150.3938802083333)"/><use xlink:href="#f" transform="matrix(1,0,0,1,105,105) translate(37.60611979166666 150.3938802083333)"/><use xlink:href="#g" transform="matrix(1,0,0,1,105,105) translate(169.22753906249997 150.3938802083333)"/><use xlink:href="#l" transform="matrix(1,0,0,1,105,105) translate(263.24283854166663 150.3938802083333)"/><use xlink:href="#i" transform="matrix(1,0,0,1,105,105) translate(413.66731770833326 150.3938802083333)"/><use xlink:href="#j" transform="matrix(1,0,0,1,105,105) translate(451.2734374999999 150.3938802083333)"/><use xlink:href="#m" transform="matrix(1,0,0,1,105,105) translate(526.4856770833333 150.3938802083333)"/><use xlink:href="#n" transform="matrix(1,0,0,1,105,105) translate(0 181.72721354166663)"/><path d="M800 100h580v400H800z" stroke="#000" stroke-width="2" fill="#fff"/><g><use xlink:href="#b" transform="matrix(1,0,0,1,805,105) translate(0 25.060546874999993)"/><use xlink:href="#c" transform="matrix(1,0,0,1,805,105) translate(112.81835937499997 25.060546874999993)"/><use xlink:href="#d" transform="matrix(1,0,0,1,805,105) translate(0 56.393880208333314)"/><use xlink:href="#e" transform="matrix(1,0,0,1,805,105) translate(0 87.72721354166664)"/><use xlink:href="#o" transform="matrix(1,0,0,1,805,105) translate(37.60611979166666 87.72721354166664)"/><use xlink:href="#e" transform="matrix(1,0,0,1,805,105) translate(0 119.06054687499997)"/><use xlink:href="#f" transform="matrix(1,0,0,1,805,105) translate(37.60611979166666 119.06054687499997)"/><use xlink:href="#g" transform="matrix(1,0,0,1,805,105) translate(169.22753906249997 119.06054687499997)"/><use xlink:href="#h" transform="matrix(1,0,0,1,805,105) translate(263.24283854166663 119.06054687499997)"/><use xlink:href="#i" transform="matrix(1,0,0,1,805,105) translate(394.86425781249994 119.06054687499997)"/><use xlink:href="#j" transform="matrix(1,0,0,1,805,105) translate(432.47037760416663 119.06054687499997)"/><use xlink:href="#k" transform="matrix(1,0,0,1,805,105) translate(507.68261718749994 119.06054687499997)"/><use xlink:href="#e" transform="matrix(1,0,0,1,805,105) translate(0 150.3938802083333)"/><use xlink:href="#o" transform="matrix(1,0,0,1,805,105) translate(37.60611979166666 150.3938802083333)"/><use xlink:href="#e" transform="matrix(1,0,0,1,805,105) translate(0 181.72721354166663)"/><use xlink:href="#f" transform="matrix(1,0,0,1,805,105) translate(37.60611979166666 181.72721354166663)"/><use xlink:href="#g" transform="matrix(1,0,0,1,805,105) translate(169.22753906249997 181.72721354166663)"/><use xlink:href="#l" transform="matrix(1,0,0,1,805,105) translate(263.24283854166663 181.72721354166663)"/><use xlink:href="#i" transform="matrix(1,0,0,1,805,105) translate(413.66731770833326 181.72721354166663)"/><use xlink:href="#j" transform="matrix(1,0,0,1,805,105) translate(451.2734374999999 181.72721354166663)"/><use xlink:href="#m" transform="matrix(1,0,0,1,805,105) translate(526.4856770833333 181.72721354166663)"/><use xlink:href="#n" transform="matrix(1,0,0,1,805,105) translate(0 213.06054687499994)"/></g><path d="M701 300h60.5M701.03 300H700" stroke="#000" stroke-width="2" fill="none"/><path d="M776.76 300l-14.26 4.64v-9.28z" stroke="#000" stroke-width="2"/><defs><path d="M410 425v-1909h547v139H590V286h367v139H410" id="p"/><path d="M285-1169c8 382 2 780 4 1169H129v-1349h237c86 239 188 461 253 720 69-258 169-481 255-720h225V0H937c2-390-5-788 6-1169-75 255-170 488-259 729H547c-90-240-185-475-262-729" id="q"/><path d="M168 279c222 39 310-114 368-290L66-1082h192c120 299 249 590 362 896 115-301 235-597 351-896h190L705 0c-65 164-130 320-275 396-67 36-177 35-262 18V279" id="r"/><path d="M237 0v-1349h191v1193h672V0H237" id="s"/><path d="M615-1102c343 0 484 203 482 560-1 347-147 562-488 562-336 0-475-219-479-562-4-349 156-560 485-560zm-8 989c240 0 301-180 301-429 0-245-55-427-290-427-236 0-299 181-299 427 0 243 61 429 288 429" id="t"/><path d="M1048-32c-2 300-135 456-433 456-222-1-358-88-400-267l184-25c22 99 100 157 222 156 184-2 248-125 248-315 0-64 3-133-2-194C807-100 706-13 524-12c-306 0-381-228-381-537 0-318 85-550 400-550 164 0 271 83 325 202h3c1-60 3-134 12-185h171c-13 339-4 702-6 1050zM585-145c210-8 284-178 284-406 0-192-52-331-177-392-33-16-69-22-104-22-223 2-259 184-259 414 0 229 31 415 256 406" id="u"/><path d="M270 425V286h367v-1631H270v-139h547V425H270" id="v"/><g id="a"><use transform="matrix(0.015299479166666663,0,0,0.015299479166666663,0,0)" xlink:href="#p"/><use transform="matrix(0.015299479166666663,0,0,0.015299479166666663,18.80305989583333,0)" xlink:href="#q"/><use transform="matrix(0.015299479166666663,0,0,0.015299479166666663,37.60611979166666,0)" xlink:href="#r"/><use transform="matrix(0.015299479166666663,0,0,0.015299479166666663,56.409179687499986,0)" xlink:href="#s"/><use transform="matrix(0.015299479166666663,0,0,0.015299479166666663,75.21223958333331,0)" xlink:href="#t"/><use transform="matrix(0.015299479166666663,0,0,0.015299479166666663,94.01529947916664,0)" xlink:href="#u"/><use transform="matrix(0.015299479166666663,0,0,0.015299479166666663,112.81835937499997,0)" xlink:href="#v"/></g><path d="M631 20c-350 0-501-215-501-562 0-355 162-560 502-560 250 0 399 118 446 323l-192 14c-23-124-109-196-262-196-242 0-305 171-305 415 1 245 61 427 304 427 151 0 248-77 267-215l190 12C1039-107 883 20 631 20" id="w"/><path d="M736-142h380V0H134v-142h422v-1200H267v-142h469v1342" id="x"/><path d="M1000-272c3 95 12 159 101 161 21 0 41-3 59-7V-6c-44 10-86 16-139 16-141 2-191-84-197-217h-6C748-76 648 20 446 20c-207 0-318-120-318-322 0-266 194-348 454-354l236-4c12-191-40-305-222-305-140 0-220 47-232 172l-188-17c33-204 181-292 423-292 255 0 401 118 401 364v466zm-683-27c0 109 63 184 175 182 166-3 259-96 306-217 24-65 20-120 20-200-232 7-501-28-501 235" id="y"/><path d="M873-819c-18-114-119-146-250-146-163 0-245 50-245 151 0 151 170 148 294 185 182 54 388 94 388 320 0 240-189 325-439 329-245 4-410-69-454-268l159-31c24 133 136 168 295 165 144-2 270-31 270-171 0-164-195-160-331-202-167-52-350-87-350-299 0-218 173-315 413-313 220 2 373 77 412 260" id="z"/><g id="b"><use transform="matrix(0.015299479166666663,0,0,0.015299479166666663,0,0)" xlink:href="#w"/><use transform="matrix(0.015299479166666663,0,0,0.015299479166666663,18.80305989583333,0)" xlink:href="#x"/><use transform="matrix(0.015299479166666663,0,0,0.015299479166666663,37.60611979166666,0)" xlink:href="#y"/><use transform="matrix(0.015299479166666663,0,0,0.015299479166666663,56.409179687499986,0)" xlink:href="#z"/><use transform="matrix(0.015299479166666663,0,0,0.015299479166666663,75.21223958333331,0)" xlink:href="#z"/></g><path d="M650-1214c-281 0-336 244-336 533 0 295 60 546 347 546 188 0 263-142 322-282l159 65C1058-155 935 20 659 20c-401 0-546-295-546-701 0-407 135-689 536-689 264 0 391 146 466 335l-168 65c-47-129-127-244-297-244" id="A"/><path d="M682 16c-209 0-323-80-324-285v-671H190v-142h170l58-282h120v282h432v142H538v652c2 114 60 155 182 155 106 0 209-16 297-34v137C921-4 806 16 682 16" id="B"/><path d="M617-1102c355 0 481 238 477 599H322c5 222 84 388 301 388 144 0 244-59 284-166l158 45C1002-72 854 20 623 20c-342 0-490-220-490-568 0-346 151-554 484-554zm291 461c-18-192-90-328-289-328-194 0-287 128-295 328h584" id="C"/><g id="c"><use transform="matrix(0.015299479166666663,0,0,0.015299479166666663,0,0)" xlink:href="#A"/><use transform="matrix(0.015299479166666663,0,0,0.015299479166666663,18.80305989583333,0)" xlink:href="#y"/><use transform="matrix(0.015299479166666663,0,0,0.015299479166666663,37.60611979166666,0)" xlink:href="#z"/><use transform="matrix(0.015299479166666663,0,0,0.015299479166666663,56.409179687499986,0)" xlink:href="#B"/><use transform="matrix(0.015299479166666663,0,0,0.015299479166666663,75.21223958333331,0)" xlink:href="#x"/><use transform="matrix(0.015299479166666663,0,0,0.015299479166666663,94.01529947916664,0)" xlink:href="#C"/></g><path d="M677 91c1 136 41 195 171 195h213v139H796c-186-8-294-116-294-303v-351c-3-164-120-222-275-232v-137c155-10 275-69 275-231v-352c6-189 106-303 294-303h265v139H848c-126-3-171 67-171 195v346c-5 158-108 234-231 274 128 36 231 115 231 274V91" id="D"/><use transform="matrix(0.015299479166666663,0,0,0.015299479166666663,0,0)" xlink:href="#D" id="d"/><path d="M698-1104c312 3 392 244 392 558 0 315-82 566-392 566-169 0-277-65-331-184h-5c8 188 2 394 4 589H185V-858c0-76-1-156-6-224h175c6 52 9 120 10 178h4c58-122 150-202 330-200zm-49 991c225 0 255-203 255-433 0-225-32-419-253-419-236 0-285 192-285 441 0 237 53 411 283 411" id="E"/><path d="M528 20c-247 0-343-132-343-381v-721h180v686c-4 177 45 284 224 277 194-8 279-136 279-336v-627h181c3 360-6 732 6 1082H885c-4-54-7-126-8-185h-3C809-64 714 20 528 20" id="F"/><path d="M365-904c58-129 161-200 334-200 130 0 228 46 293 138s98 233 98 420c0 189-34 331-102 425S824 20 698 20c-170 0-275-64-336-184 0 55-3 116-9 164H179c5-68 6-147 6-223v-1261h180c-2 193 4 394-4 580h4zm283 791c221 0 256-197 256-427 0-229-34-425-254-425-236 0-285 195-285 441 0 237 53 411 283 411" id="G"/><path d="M745-142h380V0H143v-142h422v-798H246v-142h499v940zM545-1292v-192h200v192H545" id="H"/><g id="f"><use transform="matrix(0.015299479166666663,0,0,0.015299479166666663,0,0)" xlink:href="#E"/><use transform="matrix(0.015299479166666663,0,0,0.015299479166666663,18.80305989583333,0)" xlink:href="#F"/><use transform="matrix(0.015299479166666663,0,0,0.015299479166666663,37.60611979166666,0)" xlink:href="#G"/><use transform="matrix(0.015299479166666663,0,0,0.015299479166666663,56.409179687499986,0)" xlink:href="#x"/><use transform="matrix(0.015299479166666663,0,0,0.015299479166666663,75.21223958333331,0)" xlink:href="#H"/><use transform="matrix(0.015299479166666663,0,0,0.015299479166666663,94.01529947916664,0)" xlink:href="#w"/></g><path d="M715 0H502L69-1082h202c94 253 197 500 285 758 19 57 36 126 52 183 96-335 234-626 350-941h201" id="I"/><path d="M865-914c-3-187-2-380-2-570h180v1261c0 76 1 155 6 223H877c-8-49-9-116-10-174h-5C801-44 708 26 530 26c-135 0-234-46-297-139s-95-232-95-419c0-377 131-566 392-566 176 0 271 63 335 184zm-286-51c-222 0-255 197-255 427 0 229 31 425 253 425 237 0 286-195 286-441 0-238-52-411-284-411" id="J"/><g id="g"><use transform="matrix(0.015299479166666663,0,0,0.015299479166666663,0,0)" xlink:href="#I"/><use transform="matrix(0.015299479166666663,0,0,0.015299479166666663,18.80305989583333,0)" xlink:href="#t"/><use transform="matrix(0.015299479166666663,0,0,0.015299479166666663,37.60611979166666,0)" xlink:href="#H"/><use transform="matrix(0.015299479166666663,0,0,0.015299479166666663,56.409179687499986,0)" xlink:href="#J"/></g><path d="M102-681c0-398 126-689 513-689 165 0 291 58 379 174s132 287 132 515c-1 318-88 554-298 657-123 61-317 58-438-3-206-104-288-341-288-654zm749 406c94-160 97-656-5-807-57-85-130-132-231-132-104 0-178 47-234 132-101 153-99 655 1 809 57 89 130 138 232 138 109 0 184-49 237-140" id="K"/><path d="M706-1102c241 0 344 136 343 381V0H868v-695c1-168-57-273-220-268-190 6-283 138-283 336V0H185c-3-360 6-732-6-1082h170c4 54 7 126 8 185h3c63-121 164-204 346-205" id="L"/><path d="M891-1484c-201 251-362 514-362 954 0 441 161 704 362 955H701C500 176 342-90 342-532c0-440 159-704 359-952h190" id="M"/><path d="M528-1484c201 248 357 511 357 952 0 442-156 709-357 957H336C537 174 700-89 700-530c0-440-163-703-364-954h192" id="N"/><g id="h"><use transform="matrix(0.015299479166666663,0,0,0.015299479166666663,0,0)" xlink:href="#K"/><use transform="matrix(0.015299479166666663,0,0,0.015299479166666663,18.80305989583333,0)" xlink:href="#E"/><use transform="matrix(0.015299479166666663,0,0,0.015299479166666663,37.60611979166666,0)" xlink:href="#C"/><use transform="matrix(0.015299479166666663,0,0,0.015299479166666663,56.409179687499986,0)" xlink:href="#L"/><use transform="matrix(0.015299479166666663,0,0,0.015299479166666663,75.21223958333331,0)" xlink:href="#M"/><use transform="matrix(0.015299479166666663,0,0,0.015299479166666663,94.01529947916664,0)" xlink:href="#N"/></g><use transform="matrix(0.015299479166666663,0,0,0.015299479166666663,0,0)" xlink:href="#D" id="i"/><path d="M496 0v-299h235V0H496" id="O"/><g id="j"><use transform="matrix(0.015299479166666663,0,0,0.015299479166666663,0,0)" xlink:href="#O"/><use transform="matrix(0.015299479166666663,0,0,0.015299479166666663,18.80305989583333,0)" xlink:href="#O"/><use transform="matrix(0.015299479166666663,0,0,0.015299479166666663,37.60611979166666,0)" xlink:href="#O"/></g><path d="M726 122c-7 187-108 303-294 303H167V286h213c129-2 172-59 172-195v-347c5-160 106-236 230-276-125-36-230-116-230-272v-346c2-128-45-195-172-195H167v-139h265c187 7 294 114 294 303v352c4 162 120 221 275 231v137c-155 10-275 68-275 232v351" id="P"/><use transform="matrix(0.015299479166666663,0,0,0.015299479166666663,0,0)" xlink:href="#P" id="k"/><g id="l"><use transform="matrix(0.015299479166666663,0,0,0.015299479166666663,0,0)" xlink:href="#A"/><use transform="matrix(0.015299479166666663,0,0,0.015299479166666663,18.80305989583333,0)" xlink:href="#x"/><use transform="matrix(0.015299479166666663,0,0,0.015299479166666663,37.60611979166666,0)" xlink:href="#t"/><use transform="matrix(0.015299479166666663,0,0,0.015299479166666663,56.409179687499986,0)" xlink:href="#z"/><use transform="matrix(0.015299479166666663,0,0,0.015299479166666663,75.21223958333331,0)" xlink:href="#C"/><use transform="matrix(0.015299479166666663,0,0,0.015299479166666663,94.01529947916664,0)" xlink:href="#M"/><use transform="matrix(0.015299479166666663,0,0,0.015299479166666663,112.81835937499997,0)" xlink:href="#N"/></g><use transform="matrix(0.015299479166666663,0,0,0.015299479166666663,0,0)" xlink:href="#P" id="m"/><use transform="matrix(0.015299479166666663,0,0,0.015299479166666663,0,0)" xlink:href="#P" id="n"/><g id="o"><use transform="matrix(0.015299479166666663,0,0,0.015299479166666663,0,0)" xlink:href="#p"/><use transform="matrix(0.015299479166666663,0,0,0.015299479166666663,18.80305989583333,0)" xlink:href="#q"/><use transform="matrix(0.015299479166666663,0,0,0.015299479166666663,37.60611979166666,0)" xlink:href="#r"/><use transform="matrix(0.015299479166666663,0,0,0.015299479166666663,56.409179687499986,0)" xlink:href="#s"/><use transform="matrix(0.015299479166666663,0,0,0.015299479166666663,75.21223958333331,0)" xlink:href="#t"/><use transform="matrix(0.015299479166666663,0,0,0.015299479166666663,94.01529947916664,0)" xlink:href="#u"/><use transform="matrix(0.015299479166666663,0,0,0.015299479166666663,112.81835937499997,0)" xlink:href="#v"/></g></defs></g></svg>