<?xml version="1.0" encoding="utf-8"?>
<!-- Generator: Adobe Illustrator 22.1.0, SVG Export Plug-In . SVG Version: 6.00 Build 0)  -->
<svg version="1.1" id="Vrstva_1" xmlns="http://www.w3.org/2000/svg" xmlns:xlink="http://www.w3.org/1999/xlink" x="0px" y="0px"
	 viewBox="0 0 995.1 142.4" style="enable-background:new 0 0 995.1 142.4;" xml:space="preserve">
<style type="text/css">
	.st0{fill:#973EFF;}
	.st1{fill:#FFFFFF;}
	.st2{clip-path:url(#SVGID_4_);}
	.st3{clip-path:url(#SVGID_6_);fill:#973EFF;}
	.st4{clip-path:url(#SVGID_8_);}
	.st5{clip-path:url(#SVGID_10_);fill:#FFFFFF;}
</style>
<g>
	<path class="st0" d="M587.3,99.2c-1.3-1.8-2.2-3.3-2.2-5.1c0-4,2.6-7.3,7-7.3c2.6,0,4.8,1.1,6.6,3.5c5.1,6.6,12.1,10.1,21.1,10.1
		c13.2,0,19.8-4.2,19.8-12.3c0-3.3-1.5-5.5-6.4-7c-2.4-0.7-4.4-1.3-6.2-1.5c-1.5-0.2-4.4-0.7-8.1-1.3c-4.4-0.7-8.1-1.3-11.2-2
		c-3.1-0.9-6.2-2-9.5-3.5c-6.6-3.1-9.9-8.8-9.9-16.7s3.1-13.9,9-18c6.2-4.2,13.4-6.4,22-6.4c13.2,0,22.9,4.4,29,13
		c1.1,1.3,1.5,2.9,1.5,4.6c0,4.2-3.1,7-7.7,7c-2.4,0-4.2-1.1-5.5-3.3c-3.7-5.9-9.5-8.8-17.4-8.8c-10.6,0-16.7,4-16.7,11.2
		c0,6.4,7.5,9,20.5,11c4,0.4,7,1.1,9.2,1.3c2.2,0.4,4.8,1.1,8.1,2.2s5.7,2.2,7.5,3.5c3.3,2.6,6.4,7.7,6.4,14.3
		c0,7.9-3.3,14.3-9.7,18.7c-6.4,4.6-14.7,6.8-24.6,6.8C605.3,112.7,594.5,108,587.3,99.2z M669.7,103.4V9.1c0-4.4,2.9-7.7,7-7.7
		c4.2,0,7,3.3,7,7.7v34.5c1.1-3.3,4-6.4,8.4-8.6c4.4-2.4,9-3.7,14.1-3.7c20,0,30.1,10.1,30.1,30.1v42c0,4.4-2.9,7.7-7,7.7
		c-4.2,0-7-3.3-7-7.7V64.5c0-7.5-1.1-12.8-3.5-16.1c-2.4-3.3-6.4-4.8-12.3-4.8c-7,0-12.5,2.9-16.5,8.4s-5.9,12.8-5.9,21.8v29.5
		c0,4.4-2.9,7.7-7,7.7C672.6,111.1,669.7,107.8,669.7,103.4z M785.2,112.7c-11.7,0-20.9-4-27.5-11.9S748,83.2,748,72
		s3.3-20.7,10.1-28.6c6.6-8.1,15.8-12.1,27.3-12.1c4.4,0,8.6,0.9,12.8,2.4s7.5,4,9.7,7c0.4-5.1,3.1-8.1,7-8.1c4.4,0,7.7,2.9,7.7,7.7
		V103c0,5.1-3.3,7.7-7.7,7.7c-4,0-6.8-3.1-7-8.1c-2.4,3.1-5.5,5.5-9.7,7.3C793.8,111.8,789.6,112.7,785.2,112.7z M768.5,51.5
		c-4.2,5.3-6.2,12.1-6.2,20.5s2.2,15.2,6.2,20.5c4.2,5.3,9.7,7.7,16.7,7.7s12.5-2.6,16.7-7.7c4.2-5.3,6.4-12.1,6.4-20.5
		s-2.2-15.2-6.4-20.5s-9.7-7.9-16.7-7.9S772.7,46.2,768.5,51.5z M844.6,103.2V40.7c0-4.6,2.9-7.9,7-7.9c4.2,0,7,3.3,7,7.9v3.5
		c2-3.3,5.1-6.4,9.5-9s9.2-4,14.3-4c13.2,0,22.2,4.8,27.3,14.7c0.7,1.3,0.9,2.4,0.9,3.7c0,4.4-4,7.5-7.9,7.5c-2.6,0-4.8-1.5-6.2-4.4
		c-2.9-5.9-7.7-9-14.1-9c-7.9,0-13.9,3.1-17.8,9c-4,5.9-5.9,13.4-5.9,22.2v28.2c0,4.6-2.9,7.9-7,7.9
		C847.4,111.1,844.6,107.8,844.6,103.2z M958.3,31.3c11.7,0,20.7,3.5,27.1,10.8s9.7,17.2,9.7,29.9c0,11.9-3.3,21.6-9.7,29.3
		c-6.4,7.7-15.6,11.4-27.3,11.4c-4.6,0-9-0.9-13.2-2.6c-4.2-1.8-7.3-4.2-9-7.3v31.9c0,4.4-2.9,7.7-7,7.7c-4.2,0-7-3.3-7-7.7V40.3
		c0-4.4,2.9-7.7,7-7.7c3.7,0,6.8,3.3,7,7.7c2-3.1,5.1-5.3,9.2-6.8C949.3,31.9,953.7,31.3,958.3,31.3z M980.9,72
		c0-8.6-2-15.6-5.7-20.7c-4-5.1-9.5-7.7-16.7-7.7s-12.8,2.4-16.7,7.7c-4,5.1-5.7,11.9-5.7,20.7s2,15.6,5.7,20.7
		c4,5.1,9.5,7.5,16.7,7.5s12.8-2.4,16.7-7.5C979,87.6,980.9,80.8,980.9,72z"/>
	<path id="Combined-Shape_6_" class="st1" d="M278.2,31.3c11.7,0,20.7,3.5,27.1,10.8c6.6,7.3,9.7,17.2,9.7,29.9
		c0,11.9-3.3,21.6-9.7,29.3c-6.4,7.7-15.6,11.4-27.3,11.4c-4.6,0-9-0.9-13.2-2.6s-7.3-4.2-9-7.3v31.9c0,4.4-2.9,7.7-7,7.7
		c-4.2,0-7-3.3-7-7.7V40.3c0-4.4,2.9-7.7,7-7.7c3.7,0,6.8,3.3,7,7.7c2-3.1,5.1-5.3,9.2-6.8C269.2,31.9,273.6,31.3,278.2,31.3z
		 M278.5,43.8c-7.3,0-12.8,2.4-16.7,7.7c-4,5.1-5.7,11.9-5.7,20.7s2,15.6,5.7,20.7c4,5.1,9.5,7.5,16.7,7.5c7.3,0,12.8-2.4,16.7-7.5
		c4-5.1,5.7-11.9,5.7-20.7c0-8.6-2-15.6-5.7-20.7C291.2,46.2,285.5,43.8,278.5,43.8z"/>
	<path class="st1" d="M365.8,31.3c11.4,0,20.5,3.7,27.5,11.7c7,7.7,10.6,17.4,10.6,29.3s-3.5,21.6-10.6,29.3
		c-7,7.7-16.1,11.4-27.5,11.4s-20.5-3.7-27.5-11.4s-10.6-17.4-10.6-29.3s3.5-21.6,10.6-29.3C345.3,35,354.6,31.3,365.8,31.3z
		 M365.8,43.8c-7,0-12.8,2.4-17.2,7.7c-4.4,5.1-6.6,11.9-6.6,20.7s2.2,15.6,6.6,20.7c4.4,5.1,10.1,7.5,17.2,7.5
		c7,0,12.8-2.4,17.2-7.5c4.4-5.1,6.6-12.1,6.6-20.7s-2.2-15.6-6.6-20.7C378.8,46.2,372.8,43.8,365.8,43.8z"/>
	<path id="Path_6_" class="st1" d="M417.7,99.2c-1.3-1.8-2.2-3.3-2.2-5.1c0-4,2.6-7.3,7-7.3c2.6,0,4.8,1.1,6.6,3.5
		c5.1,6.6,12.1,10.1,21.1,10.1c13.2,0,19.8-4.2,19.8-12.3c0-3.3-1.5-5.5-6.4-7c-2.4-0.7-4.4-1.3-6.2-1.5c-1.5-0.2-4.4-0.7-8.1-1.3
		c-4.4-0.7-8.1-1.3-11.2-2c-3.1-0.9-6.2-2-9.5-3.5c-6.6-3.1-9.9-8.8-9.9-16.7s3.1-13.9,9-18c6.2-4.2,13.4-6.4,22-6.4
		c13.2,0,22.9,4.4,29,13c1.1,1.3,1.5,2.9,1.5,4.6c0,4.2-3.1,7-7.7,7c-2.4,0-4.2-1.1-5.5-3.3c-3.7-5.9-9.5-8.8-17.4-8.8
		c-10.6,0-16.7,4-16.7,11.2c0,6.4,7.5,9,20.5,11c4,0.4,7,1.1,9.2,1.3c2.2,0.4,4.8,1.1,8.1,2.2c3.3,1.1,5.7,2.2,7.5,3.5
		c3.3,2.6,6.4,7.7,6.4,14.3c0,7.9-3.3,14.3-9.7,18.7c-6.4,4.6-14.7,6.8-24.6,6.8C435.9,112.7,425.2,108,417.7,99.2z"/>
	<path class="st1" d="M518.4,7.7c0-4.4,2.9-7.7,7-7.7c4.4,0,7,3.3,7,7.7v25.1h28.8c5.1,0,7.5,2,7.5,6.4c0,4.2-2.4,6.4-7.5,6.4h-28.8
		v40.9c0,9.5,5.1,13.9,12.3,13.9c5.1,0,9-1.3,11-2.6l4.6-3.3c1.3-1.1,2.9-1.5,4.2-1.5c4,0,6.6,3.1,6.6,6.8c0,2.4-1.5,4.6-4.6,6.8
		c-6.2,4.2-13.6,6.4-22.4,6.4c-7.9,0-14.1-2-18.9-5.9c-4.8-4-7-10.3-7-18.9V45.4h-20.7c-5.1,0-7.5-2-7.5-6.4c0-4.2,2.4-6.4,7.5-6.4
		h20.7V7.7H518.4z"/>
	<g>
		<g>
			<g>
				<g>
					<path id="SVGID_1_" class="st0" d="M176,100.3l26.6-25.7l0,0c0.7-0.7,0.7-1.8,0-2.6l-47.3-45.5H0v93.7h155.3L176,100.3z"/>
				</g>
				<g>
					<defs>
						<path id="SVGID_2_" d="M176,100.3l26.6-25.7l0,0c0.7-0.7,0.7-1.8,0-2.6l-47.3-45.5H0v93.7h155.3L176,100.3z"/>
					</defs>
					<clipPath id="SVGID_4_">
						<use xlink:href="#SVGID_2_"  style="overflow:visible;"/>
					</clipPath>
					<g class="st2">
						<g>
							<g>
								<g>
									<rect id="SVGID_3_" x="-1400.6" y="-1343.6" class="st0" width="3384.2" height="2922.3"/>
								</g>
								<g>
									<defs>
										<rect id="SVGID_5_" x="-1400.6" y="-1343.6" width="3384.2" height="2922.3"/>
									</defs>
									<clipPath id="SVGID_6_">
										<use xlink:href="#SVGID_5_"  style="overflow:visible;"/>
									</clipPath>
									<rect x="-9" y="17.4" class="st3" width="221.3" height="111.9"/>
								</g>
							</g>
						</g>
					</g>
				</g>
			</g>
			<g>
				<g>
					<g>
						<g>
							<defs>
								<path id="SVGID_7_" d="M43.1,69.3L41.6,77h9l1.5-7.7H43.1z M30.4,93.7l1.8-9.5H28c-2.9,0-4.4-1.1-4.4-3.5S25.1,77,28,77h5.5
									l1.5-7.7h-7c-2.9,0-4.4-1.1-4.4-3.5s1.5-3.7,4.4-3.7h8.4l1.8-9.5c0.4-2.6,2-3.7,4.8-3.7c1.8,0,3.5,1.3,3.5,3.1v0.7l-1.8,9.5
									h9l1.8-9.5c0.4-2.6,2-3.7,4.8-3.7c0.9,0,1.8,0.2,2.4,0.9c0.7,0.7,1.1,1.3,1.1,2.2l-0.2,0.7l-1.8,9.5h4.4
									c2.9,0,4.4,1.3,4.4,3.7c0,2.4-1.5,3.5-4.4,3.5h-5.7L59,77.2h7.3c2.9,0,4.4,1.3,4.4,3.7c0,2.4-1.5,3.5-4.4,3.5h-8.6l-1.8,9.5
									c-0.4,2.6-2,3.7-4.8,3.7c-1.8,0-3.5-1.3-3.5-3.1v-0.7l1.8-9.5h-9l-1.8,9.5c-0.4,2.6-2,3.7-4.8,3.7c-1.8,0-3.5-1.3-3.5-3.1
									L30.4,93.7z"/>
							</defs>
							<clipPath id="SVGID_8_">
								<use xlink:href="#SVGID_7_"  style="overflow:visible;"/>
							</clipPath>
							<g class="st4">
								<g>
									<g>
										<g>
											<defs>
												<rect id="SVGID_9_" x="-1400.6" y="-1344.4" width="3384.2" height="2922.3"/>
											</defs>
											<clipPath id="SVGID_10_">
												<use xlink:href="#SVGID_9_"  style="overflow:visible;"/>
											</clipPath>
											<rect x="14.5" y="39.9" class="st5" width="64.9" height="66.9"/>
										</g>
									</g>
								</g>
							</g>
						</g>
					</g>
				</g>
			</g>
		</g>
	</g>
</g>
</svg>
