<?xml version="1.0" encoding="utf-8"?>
<!-- Generator: Adobe Illustrator 22.1.0, SVG Export Plug-In . SVG Version: 6.00 Build 0)  -->
<svg version="1.1" id="Layer_1" xmlns="http://www.w3.org/2000/svg" xmlns:xlink="http://www.w3.org/1999/xlink" x="0px" y="0px"
	 viewBox="0 0 49.9 49.9" style="enable-background:new 0 0 49.9 49.9;" xml:space="preserve">
<style type="text/css">
	.st0{fill:#973EFF;}
</style>
<g>
	<g>
		<path class="st0" d="M25,49.9c-13.8,0-25-11.2-25-25C0,11.2,11.2,0,25,0s25,11.2,25,25C49.9,38.7,38.7,49.9,25,49.9 M25,2.4
			C12.5,2.4,2.4,12.5,2.4,25S12.5,47.6,25,47.6S47.6,37.5,47.6,25S37.4,2.4,25,2.4"/>
	</g>
	<g>
		<path class="st0" d="M22.3,24h-3.5c-1,0-1.5-0.6-1.5-1.4c0-0.9,0.6-1.5,1.5-1.5h3.5c0-2.1,0.5-3.6,1.5-4.6s2.3-1.5,3.7-1.5
			c1.7,0,3.1,0.4,4.2,1.3c0.5,0.4,0.7,0.8,0.7,1.2c0,0.9-0.6,1.5-1.4,1.5c-0.3,0-0.7-0.1-1-0.4c-0.7-0.5-1.5-0.7-2.4-0.7
			c-1.5,0-2.1,1-2.1,3.2h4.7c1,0,1.5,0.6,1.5,1.5S31.1,24,30.2,24h-4.7v10.1c0,0.9-0.7,1.5-1.6,1.5c-1,0-1.6-0.7-1.6-1.5V24z"/>
	</g>
</g>
</svg>
