<?xml version="1.0" encoding="utf-8"?>
<!-- Generator: Adobe Illustrator 22.1.0, SVG Export Plug-In . SVG Version: 6.00 Build 0)  -->
<svg version="1.1" id="Layer_1" xmlns="http://www.w3.org/2000/svg" xmlns:xlink="http://www.w3.org/1999/xlink" x="0px" y="0px"
	 viewBox="0 0 49.9 49.9" style="enable-background:new 0 0 49.9 49.9;" xml:space="preserve">
<style type="text/css">
	.st0{fill:#973EFF;}
</style>
<g>
	<path class="st0" d="M16.5,17.4L16.5,17.4c0.6,0,1.1-0.2,1.5-0.6s0.6-0.9,0.6-1.5s-0.2-1.1-0.6-1.5s-0.9-0.6-1.5-0.6
		s-1.1,0.2-1.5,0.6c-0.4,0.4-0.6,0.9-0.6,1.5s0.2,1.1,0.6,1.5C15.4,17.2,15.9,17.4,16.5,17.4z"/>
	<path class="st0" d="M22.6,30.8h-4.1v-9.9c0-1.2-0.5-1.7-1.7-1.7h-4.7c-1,0-1.5,0.6-1.5,1.5s0.6,1.4,1.5,1.4h3.2v8.7h-4.1
		c-1,0-1.5,0.6-1.5,1.5c0,0.9,0.6,1.4,1.5,1.4h11.4c1,0,1.5-0.6,1.5-1.4C24.1,31.3,23.5,30.8,22.6,30.8z"/>
	<path class="st0" d="M34.7,18.9c-0.9,0-1.8,0.2-2.5,0.6s-1.3,0.9-1.7,1.5v-0.2c0-0.9-0.7-1.5-1.6-1.5c-1,0-1.6,0.7-1.6,1.5v11.4
		c0,0.9,0.7,1.5,1.6,1.5c1,0,1.6-0.7,1.6-1.5v-5.7c0-1.4,0.4-2.5,1.1-3.4c0.7-0.9,1.6-1.3,2.6-1.3c1.7,0,2.5,0.9,2.5,2.7v7.6
		c0,0.9,0.7,1.5,1.6,1.5c1,0,1.6-0.7,1.6-1.5V24c0-1.7-0.5-2.9-1.4-3.8C37.6,19.3,36.3,18.9,34.7,18.9z"/>
	<path class="st0" d="M25,0C11.2,0,0,11.2,0,25s11.2,25,25,25l0,0c13.8,0,25-11.2,25-25C49.9,11.2,38.7,0,25,0z M25,47.6
		C12.5,47.6,2.4,37.4,2.4,25C2.4,12.5,12.5,2.4,25,2.4S47.6,12.5,47.6,25C47.6,37.4,37.4,47.6,25,47.6z"/>
</g>
</svg>
