<?xml version="1.0" encoding="utf-8"?>
<!-- Generator: Adobe Illustrator 24.1.2, SVG Export Plug-In . SVG Version: 6.00 Build 0)  -->
<svg version="1.1" id="Vrstva_1" xmlns="http://www.w3.org/2000/svg" xmlns:xlink="http://www.w3.org/1999/xlink" x="0px" y="0px"
	 viewBox="0 0 1234.3 176.9" style="enable-background:new 0 0 1234.3 176.9;" xml:space="preserve">
<style type="text/css">
	.st0{fill:#973EFF;}
	.st1{fill:#FFFFFF;}
</style>
<path class="st0" d="M218.5,124.6l33.1-31.9l0,0c0.8-0.9,0.8-2.3,0-3.2l-58.9-56.7H0v116.6h192.7L218.5,124.6z"/>
<path class="st1" d="M53.6,86.3L51.7,96h11.2l1.9-9.7H53.6z M37.6,116.6l2.2-11.6h-5.3c-3.6,0-5.4-1.5-5.4-4.5s1.8-4.5,5.4-4.5h6.9
	l1.9-9.7h-8.8c-3.6,0-5.4-1.5-5.4-4.5s1.8-4.5,5.4-4.5H45l2.3-11.7c0.5-3.1,2.5-4.8,6-4.8c2.3,0,4.3,1.7,4.3,3.9l-0.1,0.8l-2.3,11.7
	h11.2l2.3-11.7c0.5-3.1,2.5-4.8,6-4.8c1.1,0,2.1,0.4,3,1.1c0.9,0.8,1.4,1.7,1.4,2.8L79,65.4l-2.3,11.7h5.4c3.6,0,5.4,1.5,5.4,4.5
	s-1.8,4.5-5.4,4.5h-7l-2,9.9H82c3.6,0,5.4,1.5,5.4,4.5S85.6,105,82,105H71.5l-2.2,11.6c-0.5,3.1-2.5,4.8-6,4.8
	c-2.3,0-4.3-1.7-4.3-3.9l0.1-0.9l2.2-11.6H50l-2.2,11.6c-0.5,3.1-2.5,4.8-6,4.8c-2.3,0-4.3-1.7-4.3-3.9L37.6,116.6z"/>
<g>
	<g>
		<path class="st0" d="M728.4,123.1c-1.7-2.1-2.6-4.2-2.6-6.4c0-4.9,3.4-9.1,8.7-9.1c3.3,0,6,1.4,8.1,4.3
			c6.2,8.3,14.9,12.4,26.2,12.4c16.3,0,24.4-5.1,24.4-15.4c0-4.2-1.9-6.9-8-8.7c-3-0.9-5.5-1.6-7.6-2c-2-0.4-5.5-0.9-10.2-1.5
			c-5.5-0.8-10.2-1.6-14-2.6s-7.6-2.5-11.7-4.5c-8.1-3.9-12.3-10.9-12.3-20.8c0-9.8,3.8-17.2,11.3-22.3c7.6-5.2,16.7-7.8,27.1-7.8
			c16.3,0,28.3,5.4,36.1,16.1c1.3,1.7,1.9,3.6,1.9,5.6c0,5.2-3.9,8.7-9.4,8.7c-2.9,0-5.2-1.3-6.9-4.1c-4.5-7.3-11.7-10.9-21.7-10.9
			c-13.1,0-20.7,5-20.7,13.9c0,8,9.1,11.3,25.4,13.6c4.9,0.7,8.7,1.2,11.4,1.7s6.1,1.3,10,2.7c4,1.2,7.1,2.8,9.1,4.5
			c4.1,3.3,8,9.6,8,17.6c0,9.9-4,17.6-12,23.2c-8,5.6-18.2,8.3-30.6,8.3C750.9,139.8,737.6,134.2,728.4,123.1z M830.8,128.4v-117
			c0-5.4,3.6-9.6,8.9-9.6c5.3,0,8.9,4.2,8.9,9.6v42.7c1.4-4.2,4.9-7.8,10.4-10.7c5.5-3,11.3-4.6,17.4-4.6
			c24.8,0,37.3,12.5,37.3,37.5v52.1c0,5.4-3.6,9.5-8.9,9.5c-5.3,0-8.9-4.1-8.9-9.5V80.3c0-9.2-1.4-15.7-4.3-19.8
			c-2.9-4.1-8-6.1-15.2-6.1c-8.7,0-15.5,3.5-20.4,10.4s-7.4,15.9-7.4,27.1v36.5c0,5.4-3.6,9.5-8.9,9.5
			C834.4,137.9,830.8,133.9,830.8,128.4z M973.9,139.8c-14.5,0-25.9-4.9-34.1-14.7c-8.1-9.9-12.1-21.8-12.1-35.8
			c0-13.9,4.1-25.7,12.4-35.6c8.3-10,19.5-14.9,33.8-14.9c5.4,0,10.6,1,15.7,3.1c5.1,2,9.1,4.9,12,8.8c0.5-6.2,3.9-10.1,8.9-10.1
			c5.5,0,9.5,3.5,9.5,9.7v77.8c0,6.2-4,9.7-9.5,9.7c-5,0-8.4-3.9-8.9-10.1c-2.9,3.9-6.9,6.8-12,8.9
			C984.5,138.8,979.3,139.8,973.9,139.8z M953.2,64.1c-5.1,6.5-7.7,14.9-7.7,25.2s2.6,18.8,7.7,25.3c5.2,6.5,12,9.7,20.6,9.7
			s15.5-3.2,20.6-9.7c5.2-6.5,7.8-15,7.8-25.3s-2.6-18.8-7.8-25.2c-5.1-6.5-12-9.8-20.6-9.8S958.4,57.6,953.2,64.1z M1047.7,128.1
			V50.7c0-5.7,3.6-9.9,8.9-9.9s8.9,4.2,8.9,9.9V55c2.4-4.2,6.3-7.9,11.6-11.2c5.4-3.3,11.4-4.9,17.8-4.9c16.5,0,27.6,6.1,33.7,18.2
			c0.8,1.6,1.2,3.1,1.2,4.6c0,5.4-4.8,9.3-9.8,9.3c-3.4,0-5.9-1.8-7.5-5.4c-3.7-7.5-9.5-11.3-17.5-11.3c-9.7,0-17.1,3.7-22,11.1
			s-7.4,16.6-7.4,27.6v35c0,5.7-3.6,9.9-8.9,9.9S1047.7,133.8,1047.7,128.1z M1188.6,38.9c14.3,0,25.5,4.5,33.6,13.4
			s12.1,21.2,12.1,37.1c0,14.6-4,26.7-12,36.2s-19.3,14.2-33.7,14.2c-5.8,0-11.3-1.1-16.5-3.3c-5.2-2.3-9-5.2-11.2-8.9v39.7
			c0,5.4-3.6,9.6-8.9,9.6s-8.9-4.2-8.9-9.6v-117c0-5.4,3.6-9.5,8.9-9.5c4.5,0,8.6,4.1,8.9,9.5c2.5-3.7,6.4-6.5,11.5-8.4
			C1177.5,39.8,1182.9,38.9,1188.6,38.9z M1216.6,89.4c0-10.7-2.4-19.3-7.2-25.5c-4.8-6.4-11.6-9.5-20.6-9.5s-15.8,3.1-20.6,9.5
			c-4.8,6.3-7.2,14.8-7.2,25.5c0,10.9,2.4,19.4,7.2,25.7c4.8,6.2,11.6,9.3,20.6,9.3s15.8-3.1,20.6-9.3
			C1214.2,108.8,1216.6,100.3,1216.6,89.4z"/>
	</g>
	<g id="Combined-Shape_2_">
		<path class="st1" d="M345.3,38.9c14.3,0,25.5,4.5,33.6,13.4S391,73.5,391,89.4c0,14.6-4,26.7-12,36.2s-19.3,14.2-33.7,14.2
			c-5.8,0-11.3-1.1-16.5-3.3c-5.2-2.3-9-5.2-11.2-8.9v39.7c0,5.4-3.6,9.6-8.9,9.6s-8.9-4.2-8.9-9.6v-117c0-5.4,3.6-9.5,8.9-9.5
			c4.5,0,8.6,4.1,8.9,9.5c2.5-3.7,6.4-6.5,11.5-8.4C334.2,39.8,339.6,38.9,345.3,38.9z M345.5,54.4c-9,0-15.8,3.1-20.6,9.5
			c-4.8,6.3-7.2,14.8-7.2,25.5c0,10.9,2.4,19.4,7.2,25.7c4.8,6.2,11.6,9.3,20.6,9.3s15.8-3.1,20.6-9.3c4.8-6.3,7.2-14.8,7.2-25.7
			c0-10.7-2.4-19.3-7.2-25.5C361.2,57.5,354.4,54.4,345.5,54.4z"/>
	</g>
	<g>
		<path class="st1" d="M453.9,38.9c14.1,0,25.4,4.7,34.1,14.3c8.7,9.5,13,21.5,13,36.1s-4.3,26.7-13,36.2s-20,14.2-34.1,14.2
			s-25.4-4.7-34.2-14.2c-8.7-9.6-13-21.6-13-36.2s4.3-26.7,13-36.1C428.5,43.6,439.9,38.9,453.9,38.9z M453.9,54.4
			c-8.8,0-15.9,3.1-21.3,9.5c-5.4,6.3-8.1,14.8-8.1,25.5s2.7,19.3,8.1,25.6s12.5,9.4,21.3,9.4s15.9-3.1,21.3-9.4
			c5.4-6.4,8.1-14.9,8.1-25.6s-2.7-19.3-8.1-25.5C469.8,57.5,462.7,54.4,453.9,54.4z"/>
	</g>
	<g id="Path_2_">
		<path class="st1" d="M518.2,123.1c-1.7-2.1-2.6-4.2-2.6-6.4c0-4.9,3.4-9.1,8.7-9.1c3.3,0,6,1.4,8.1,4.3
			c6.2,8.3,14.9,12.4,26.2,12.4c16.3,0,24.4-5.1,24.4-15.4c0-4.2-1.9-6.9-8-8.7c-3-0.9-5.5-1.6-7.6-2c-2-0.4-5.5-0.9-10.2-1.5
			c-5.5-0.8-10.2-1.6-14-2.6s-7.6-2.5-11.7-4.5c-8.1-3.9-12.3-10.9-12.3-20.8c0-9.8,3.8-17.2,11.3-22.3c7.6-5.2,16.7-7.8,27.1-7.8
			c16.3,0,28.3,5.4,36.1,16.1c1.3,1.7,1.9,3.6,1.9,5.6c0,5.2-3.9,8.7-9.4,8.7c-2.9,0-5.2-1.3-6.9-4.1c-4.5-7.3-11.7-10.9-21.7-10.9
			c-13.1,0-20.7,5-20.7,13.9c0,8,9.1,11.3,25.4,13.6c4.9,0.7,8.7,1.2,11.4,1.7s6.1,1.3,10,2.7c4,1.2,7.1,2.8,9.1,4.5
			c4.1,3.3,8,9.6,8,17.6c0,9.9-4,17.6-12,23.2c-8,5.6-18.2,8.3-30.6,8.3C540.8,139.8,527.4,134.2,518.2,123.1z"/>
	</g>
	<g>
		<path class="st1" d="M643.1,9.7c0-5.4,3.5-9.7,8.8-9.7c5.5,0,8.9,4,8.9,9.7v31.1h35.7c6.2,0,9.2,2.6,9.2,7.8s-3.1,7.8-9.2,7.8
			h-35.7v50.8c0,11.9,6.4,17.2,15.2,17.2c6.3,0,11.3-1.6,13.7-3.2l5.7-4c1.7-1.2,3.5-1.9,5.3-2c5,0,8.1,3.8,8.1,8.3
			c0,2.9-1.9,5.8-5.7,8.4c-7.6,5.3-16.9,8-27.8,7.9c-9.7,0-17.5-2.5-23.4-7.5s-8.8-12.9-8.8-23.5V56.3h-25.6c-6.2,0-9.2-2.6-9.2-7.8
			s3.1-7.8,9.2-7.8h25.6V9.7z"/>
	</g>
</g>
</svg>
