<?xml version="1.0" encoding="utf-8"?>
<!-- Generator: Adobe Illustrator 22.1.0, SVG Export Plug-In . SVG Version: 6.00 Build 0)  -->
<svg version="1.1" id="Layer_1" xmlns="http://www.w3.org/2000/svg" xmlns:xlink="http://www.w3.org/1999/xlink" x="0px" y="0px"
	 viewBox="0 0 40 40" style="enable-background:new 0 0 40 40;" xml:space="preserve">
<style type="text/css">
	.st0{fill:#61D3E1;}
</style>
<g>
	<path class="st0" d="M20,0c11,0,20,9,20,20s-9,20-20,20S0,31,0,20S9,0,20,0 M20,38c9.9,0,18-8.1,18-18c0-10-8.1-18.1-18-18.1
		C10,1.9,1.9,10,1.9,20C1.9,29.9,10,38,20,38"/>
	<g>
		<path class="st0" d="M12,9.1V12c4.2,0.1,8.2,1.9,11.2,4.9s4.8,7,4.9,11.3H31C30.7,17.8,22.3,9.5,12,9.1"/>
	</g>
	<g>
		<path class="st0" d="M14.1,23.9c-1.2,0-2.2,1-2.2,2.2s1,2.2,2.2,2.2s2.2-1,2.2-2.2C16.3,24.8,15.3,23.9,14.1,23.9"/>
	</g>
	<g>
		<path class="st0" d="M12,16v2.9c4.9,0.3,8.9,4.3,9.3,9.3h2.9C23.8,21.7,18.5,16.4,12,16"/>
	</g>
</g>
</svg>
