<svg xmlns="http://www.w3.org/2000/svg" width="79" height="100" viewBox="0 0 79 100"><g><g><g><path fill="#fff" d="M62.67 44.53H14.12a1.5 1.5 0 1 1 0-3h48.55a1.5 1.5 0 1 1 0 3z"/></g><g><path fill="#fff" d="M62.67 55.14H14.12a1.5 1.5 0 1 1 0-3h48.55a1.5 1.5 0 1 1 0 3z"/></g><g><path fill="#fff" d="M62.67 65.75H14.12a1.5 1.5 0 1 1 0-3h48.55a1.5 1.5 0 1 1 0 3z"/></g><g><path fill="#fff" d="M62.67 76.37H14.12a1.5 1.5 0 1 1 0-3h48.55a1.5 1.5 0 1 1 0 3z"/></g><g><path fill="#fff" d="M62.67 87H14.12a1.5 1.5 0 1 1 0-3h48.55a1.5 1.5 0 1 1 0 3z"/></g><g><path fill="#fff" d="M70.88 3A2.18 2.18 0 0 1 73 5.15V90.8a15.05 15.05 0 0 0 1.29 6.14H9.14A6.15 6.15 0 0 1 3 90.8V5.15A2.19 2.19 0 0 1 5.15 3zm5.95 96.94a1.51 1.51 0 0 0 1.23-2.37A11.33 11.33 0 0 1 76 90.8V5.15A5.16 5.16 0 0 0 70.88 0H5.15A5.16 5.16 0 0 0 0 5.15V90.8a9.15 9.15 0 0 0 9.14 9.14z"/></g><g><path fill="#fff" d="M15.62 14.79h45.55V30.1H15.62zM64.17 31.6V13.29a1.5 1.5 0 0 0-1.5-1.5H14.12a1.5 1.5 0 0 0-1.5 1.5V31.6a1.5 1.5 0 0 0 1.5 1.5h48.55a1.5 1.5 0 0 0 1.5-1.5z"/></g></g></g></svg>