<?xml version="1.0" encoding="utf-8"?>
<!-- Generator: Adobe Illustrator 22.1.0, SVG Export Plug-In . SVG Version: 6.00 Build 0)  -->
<svg version="1.1" id="Layer_1" xmlns="http://www.w3.org/2000/svg" xmlns:xlink="http://www.w3.org/1999/xlink" x="0px" y="0px"
	 viewBox="0 0 50 50" style="enable-background:new 0 0 50 50;" xml:space="preserve">
<style type="text/css">
	.st0{fill:#61D3E1;}
</style>
<path class="st0" d="M37.3,16.8c-0.2,0-0.3,0-0.5,0.1c-0.8,0.5-1.5,0.6-2.2,0.4c-1.7-1.6-4.2-2-6.3-0.8c-1.8,1-2.8,2.7-2.8,4.7
	c-2.9-0.4-5.6-1.9-7.4-4.2c-0.2-0.2-0.4-0.3-0.6-0.3s-0.5,0-0.7,0.2c-0.1,0.1-0.2,0.2-0.2,0.3c-0.9,1.6-1,3.4-0.2,5
	c-0.3,0.2-0.6,0.5-0.5,0.9c0,1.5,0.6,2.9,1.7,3.9c-0.1,0.2-0.2,0.5-0.1,0.8c0.4,1.4,1.4,2.5,2.7,3.1c-1.3,0.5-2.7,0.7-4.1,0.6
	c-0.4-0.1-0.8,0.2-1,0.6c-0.1,0.4-0.1,0.8,0.4,1.1c2.2,1.4,4.7,2.1,7.3,2.1l0,0c3.8,0,7.4-1.5,9.9-4.2c2.4-2.6,3.8-5.9,3.7-9.5
	c1-0.9,2-2.4,2-3.8C38.2,17.2,37.8,16.8,37.3,16.8z M22.8,31L22.8,31L22.8,31L22.8,31z M22.9,31.2L22.9,31.2c0.3-0.2,0.4-0.6,0.3-1
	s-0.5-0.6-0.9-0.6c-1,0-1.9-0.5-2.6-1.2c0.2,0,0.4-0.1,0.7-0.1c0.4-0.1,0.7-0.5,0.7-0.9s-0.3-0.8-0.7-0.9c-1.2-0.2-2.1-1-2.6-2.1
	c0.3,0,0.5,0.1,0.8,0.1l0,0c0.4,0,0.8-0.3,0.9-0.7c0.1-0.4,0-0.8-0.4-1c-1.2-0.8-1.7-2.1-1.5-3.4c2.4,2.3,5.5,3.7,8.8,3.8
	c0.3,0,0.6-0.1,0.8-0.3c0.2-0.2,0.3-0.5,0.2-0.8c-0.4-1.9,0.6-3.2,1.8-3.8c1.1-0.6,2.9-0.8,4.3,0.7c0.4,0.5,1.6,0.5,2.4,0.4
	c-0.3,0.5-0.7,0.9-1.1,1.1c-0.3,0.2-0.4,0.5-0.4,0.8c0.2,3.1-1,6.3-3.2,8.6s-5.2,3.6-8.6,3.6c-1.1,0-2.1-0.1-3.1-0.4
	C20.7,32.6,21.9,32,22.9,31.2z"/>
<path class="st0" d="M25,0C11.2,0,0,11.2,0,25s11.2,25,25,25s25-11.2,25-25C49.9,11.2,38.7,0,25,0z M25,47.6
	C12.5,47.6,2.4,37.4,2.4,25C2.4,12.5,12.5,2.4,25,2.4S47.6,12.5,47.6,25C47.6,37.4,37.4,47.6,25,47.6z"/>
</svg>
