<?xml version="1.0" encoding="utf-8"?>
<!-- Generator: Adobe Illustrator 24.1.3, SVG Export Plug-In . SVG Version: 6.00 Build 0)  -->
<svg version="1.1" id="Layer_1" xmlns="http://www.w3.org/2000/svg" xmlns:xlink="http://www.w3.org/1999/xlink" x="0px" y="0px"
	 viewBox="0 0 704.3 253.2" style="enable-background:new 0 0 704.3 253.2;" xml:space="preserve">
<style type="text/css">
	.st0{fill-rule:evenodd;clip-rule:evenodd;fill:#FFFFFF;}
	.st1{fill:#FFFFFF;}
</style>
<path class="st0" d="M254.6,41.6V41c0-6.1-3.5-11.6-9-14.3L193.1,1.5c-2.3-1.1-4.7-1.6-7.1-1.5c-1.1,0-2.2,0.2-3.3,0.4c0,0,0,0,0,0
	c-2.2,0.5-4.3,1.5-6.1,2.9c-0.1,0.1-0.3,0.2-0.4,0.3c-0.4,0.3-0.8,0.7-1.2,1L90.5,98.1L41.1,57.7L36.8,54c-2.6-2.3-6.2-3.1-9.6-2.2
	c-0.5,0.1-1,0.3-1.4,0.5l-19.3,8c-0.3,0.1-0.6,0.3-0.8,0.4c-3.2,1.7-5.4,4.9-5.7,8.5c0,0.3,0,0.5,0,0.8v0.1V71v111.3v0.8v0.1
	c0,0.2,0,0.4,0,0.7c0,0.2,0.1,0.5,0.1,0.7c0,0.1,0,0.2,0,0.3c0.1,0.4,0.1,0.7,0.2,1.1c0,0.2,0.1,0.3,0.1,0.5
	c0.1,0.2,0.1,0.4,0.2,0.6c0.1,0.3,0.2,0.6,0.4,0.8c0.1,0.1,0.1,0.3,0.2,0.4c0.2,0.4,0.4,0.7,0.6,1c0,0,0,0,0,0
	c1.1,1.6,2.7,2.8,4.5,3.6l19.3,8.1c3.7,1.6,8,0.9,11-1.7l4.3-3.7l49.3-40.5l84.6,93.5c0,0,0,0,0,0c4.8,4.8,12,6,18.1,3.1l52.5-25.2
	c5.5-2.7,9-8.2,9-14.3v-0.6c0,0,0,0,0,0L254.6,41.6C254.6,41.6,254.6,41.6,254.6,41.6z M190.9,72.7v107.8l-65.7-53.9L190.9,72.7z
	 M64.7,126.6L31.8,163V90.2L64.7,126.6z"/>
<g>
	<g>
		<path class="st1" d="M408.7,7.9l-37.1,100.2h-12.9L322.3,7.9h13.1l27.7,79.4c0.9,2.6,1.6,5.5,2,8.9h0.3c0.4-2.8,1.1-5.8,2.3-9
			L396,7.9H408.7z"/>
		<path class="st1" d="M423.1,18.4c-2,0-3.8-0.7-5.2-2.1c-1.4-1.4-2.2-3.2-2.2-5.3s0.7-3.9,2.2-5.3c1.4-1.4,3.2-2.1,5.2-2.1
			c2.1,0,3.9,0.7,5.3,2.1c1.5,1.4,2.2,3.2,2.2,5.3c0,2-0.7,3.8-2.2,5.2C427,17.7,425.2,18.4,423.1,18.4z M428.7,108.1h-11.5V36.6
			h11.5V108.1z"/>
		<path class="st1" d="M443.3,105.5V93.2c6.2,4.6,13.1,6.9,20.6,6.9c10.1,0,15.1-3.4,15.1-10.1c0-1.9-0.4-3.5-1.3-4.9
			c-0.9-1.3-2-2.5-3.5-3.5s-3.2-1.9-5.2-2.8c-2-0.8-4.1-1.7-6.4-2.6c-3.2-1.3-5.9-2.5-8.3-3.8s-4.4-2.7-6-4.3
			c-1.6-1.6-2.8-3.4-3.6-5.5c-0.8-2-1.2-4.4-1.2-7.2c0-3.4,0.8-6.3,2.3-8.9s3.6-4.7,6.1-6.5c2.6-1.7,5.5-3.1,8.8-3.9
			c3.3-0.9,6.7-1.3,10.2-1.3c6.2,0,11.7,1.1,16.6,3.2v11.6c-5.3-3.5-11.3-5.2-18.2-5.2c-2.1,0-4.1,0.2-5.8,0.7
			c-1.7,0.5-3.2,1.2-4.4,2.1c-1.2,0.9-2.2,1.9-2.9,3.2c-0.7,1.2-1,2.6-1,4.1c0,1.9,0.3,3.4,1,4.7c0.7,1.2,1.7,2.4,3,3.4
			s2.9,1.9,4.7,2.7c1.9,0.8,4,1.6,6.4,2.6c3.2,1.2,6,2.5,8.5,3.7c2.5,1.3,4.7,2.7,6.4,4.3c1.8,1.6,3.1,3.5,4.1,5.6s1.4,4.6,1.4,7.5
			c0,3.5-0.8,6.6-2.3,9.2c-1.6,2.6-3.6,4.8-6.2,6.5s-5.6,3-9,3.8s-7,1.3-10.7,1.3C455,109.8,448.6,108.4,443.3,105.5z"/>
		<path class="st1" d="M561.8,108.1h-11.5V96.8H550c-4.7,8.7-12.1,13-22.1,13c-17,0-25.6-10.2-25.6-30.5V36.6h11.4v40.9
			c0,15.1,5.8,22.6,17.3,22.6c5.6,0,10.2-2.1,13.8-6.2s5.4-9.5,5.4-16.2V36.6h11.5L561.8,108.1L561.8,108.1z"/>
		<path class="st1" d="M631.9,108.1h-11.5V96.9h-0.3c-5,8.6-12.3,12.9-22,12.9c-7.1,0-12.7-1.9-16.7-5.7c-4-3.8-6-8.8-6-15
			c0-13.4,7.9-21.1,23.6-23.3l21.4-3c0-12.2-4.9-18.2-14.7-18.2c-8.6,0-16.4,2.9-23.3,8.8V41.6c7-4.5,15.1-6.7,24.3-6.7
			c16.8,0,25.2,8.9,25.2,26.7V108.1z M620.4,71.9l-17.2,2.4c-5.3,0.7-9.3,2.1-12,3.9c-2.7,1.9-4.1,5.2-4.1,10c0,3.5,1.2,6.3,3.7,8.6
			c2.5,2.2,5.8,3.3,10,3.3c5.7,0,10.4-2,14.1-6c3.7-4,5.5-9,5.5-15.1V71.9z"/>
		<path class="st1" d="M660.6,108.1h-11.5V2.2h11.5V108.1z"/>
	</g>
</g>
<g>
	<g>
		<path class="st1" d="M326.7,240.7v-13.8c1.6,1.4,3.5,2.7,5.7,3.8s4.5,2.1,7,2.8c2.4,0.8,4.9,1.4,7.4,1.8c2.5,0.4,4.8,0.6,6.8,0.6
			c7.2,0,12.6-1.3,16.2-4s5.3-6.5,5.3-11.6c0-2.7-0.6-5.1-1.8-7.1c-1.2-2-2.8-3.8-4.9-5.5s-4.6-3.2-7.4-4.7
			c-2.9-1.5-5.9-3.1-9.3-4.8c-3.5-1.8-6.8-3.6-9.8-5.4c-3-1.8-5.7-3.8-7.9-6c-2.2-2.2-4-4.7-5.3-7.4c-1.3-2.8-1.9-6-1.9-9.7
			c0-4.6,1-8.5,3-11.9s4.6-6.2,7.9-8.4s7-3.8,11.1-4.9c4.2-1.1,8.4-1.6,12.8-1.6c9.9,0,17.1,1.2,21.6,3.6v13.2
			c-5.9-4.1-13.5-6.1-22.8-6.1c-2.6,0-5.1,0.3-7.7,0.8s-4.8,1.4-6.8,2.6c-2,1.2-3.6,2.8-4.9,4.7s-1.9,4.2-1.9,7
			c0,2.6,0.5,4.8,1.4,6.6c1,1.9,2.4,3.6,4.2,5.1c1.9,1.5,4.1,3,6.8,4.5c2.7,1.4,5.8,3,9.3,4.7c3.6,1.8,7,3.6,10.2,5.6s6,4.1,8.5,6.5
			c2.4,2.4,4.3,5,5.8,7.9c1.4,2.9,2.1,6.2,2.1,9.9c0,4.9-1,9.1-2.9,12.5s-4.5,6.2-7.8,8.4c-3.3,2.1-7.1,3.7-11.4,4.6
			c-4.3,1-8.8,1.4-13.6,1.4c-1.6,0-3.5-0.1-5.9-0.4c-2.3-0.3-4.7-0.6-7.1-1.1s-4.7-1.1-6.9-1.8C329.7,242.4,328,241.6,326.7,240.7z"
			/>
		<path class="st1" d="M432.2,244c-2.7,1.5-6.3,2.2-10.7,2.2c-12.5,0-18.8-7-18.8-21V183h-12.3v-9.8h12.3v-17.5l11.5-3.7v21.2h18
			v9.8h-18v40.3c0,4.8,0.8,8.2,2.4,10.3s4.3,3.1,8.1,3.1c2.9,0,5.4-0.8,7.5-2.4V244z"/>
		<path class="st1" d="M503.2,244.7h-11.5v-11.3h-0.3c-4.7,8.7-12.1,13-22.1,13c-17,0-25.6-10.2-25.6-30.5v-42.8h11.4V214
			c0,15.1,5.8,22.6,17.3,22.6c5.6,0,10.2-2.1,13.8-6.2c3.6-4.1,5.4-9.5,5.4-16.2V173h11.5v71.7H503.2z"/>
		<path class="st1" d="M585.2,244.7h-11.5v-12.2h-0.3c-5.3,9.2-13.5,13.8-24.6,13.8c-9,0-16.2-3.2-21.6-9.6
			c-5.4-6.4-8.1-15.1-8.1-26.2c0-11.8,3-21.3,8.9-28.4c6-7.1,13.9-10.7,23.8-10.7c9.8,0,17,3.9,21.4,11.6h0.3v-44.3H585v106H585.2z
			 M573.8,212.4v-10.6c0-5.8-1.9-10.7-5.7-14.7s-8.7-6-14.5-6c-7,0-12.5,2.6-16.5,7.7c-4,5.1-6,12.2-6,21.2c0,8.2,1.9,14.7,5.8,19.5
			c3.8,4.8,9,7.2,15.5,7.2c6.4,0,11.6-2.3,15.5-6.9C571.8,225.3,573.8,219.4,573.8,212.4z"/>
		<path class="st1" d="M612.2,155.1c-2,0-3.8-0.7-5.2-2.1c-1.4-1.4-2.2-3.2-2.2-5.3s0.7-3.9,2.2-5.3c1.4-1.4,3.2-2.1,5.2-2.1
			c2.1,0,3.9,0.7,5.3,2.1c1.5,1.4,2.2,3.2,2.2,5.3c0,2-0.7,3.8-2.2,5.2C616,154.3,614.2,155.1,612.2,155.1z M617.7,244.7h-11.5
			v-71.5h11.5V244.7z"/>
		<path class="st1" d="M668.7,246.4c-10.6,0-19-3.3-25.3-10s-9.5-15.5-9.5-26.6c0-12,3.3-21.4,9.9-28.2c6.6-6.8,15.4-10.1,26.6-10.1
			c10.7,0,19,3.3,25,9.9c6,6.6,9,15.7,9,27.3c0,11.4-3.2,20.6-9.7,27.4C688.2,243,679.5,246.4,668.7,246.4z M669.5,181.2
			c-7.4,0-13.2,2.5-17.5,7.5s-6.4,11.9-6.4,20.7c0,8.5,2.2,15.2,6.5,20c4.3,4.9,10.1,7.3,17.4,7.3c7.4,0,13.1-2.4,17.1-7.2
			s6-11.6,6-20.5s-2-15.8-6-20.7C682.6,183.6,676.9,181.2,669.5,181.2z"/>
	</g>
</g>
</svg>
